<?xml version="1.0" encoding="UTF-8"?>
<!DOCTYPE svg PUBLIC "-//W3C//DTD SVG 1.1//EN" "http://www.w3.org/Graphics/SVG/1.1/DTD/svg11.dtd">
<!-- Creator: CorelDRAW X7 -->
<svg xmlns="http://www.w3.org/2000/svg" xml:space="preserve" width="420mm" height="297mm" version="1.1" style="shape-rendering:geometricPrecision; text-rendering:geometricPrecision; image-rendering:optimizeQuality; fill-rule:evenodd; clip-rule:evenodd"
viewBox="0 0 42000 29700"
 xmlns:xlink="http://www.w3.org/1999/xlink">
 <defs>
  <style type="text/css">
   <![CDATA[
    .fil5 {fill:none}
    .fil0 {fill:#2C3D96}
    .fil1 {fill:#4EC1F0}
    .fil3 {fill:#92C64A}
    .fil4 {fill:#CF3C2D}
    .fil2 {fill:#FFF000}
   ]]>
  </style>
   <clipPath id="id0">
    <path d="M1 4l41962 0 0 29686 -41962 0 0 -29686z"/>
   </clipPath>
 </defs>
 <g id="Layer_x0020_1">
  <metadata id="CorelCorpID_0Corel-Layer"/>
  <polygon class="fil0" points="1,4 41963,4 41963,29690 1,29690 "/>
  <g style="clip-path:url(#id0)">
   <g id="_2595436883072">
    <path id="1" class="fil1" d="M37630 23019l671 142c24,8 43,18 69,25 356,96 376,1 721,111 651,206 769,190 1307,-181 9,-237 1302,-465 821,-681l-383 -141c129,-64 220,-89 356,-169 -301,-811 -397,-657 -727,-759l-373 -178c-19,-492 100,-494 93,-791 -845,-192 -331,47 -809,-393 -171,-157 -85,2 -318,-180 -79,-920 -258,-778 -850,-925l-167 -53c-474,-124 -255,55 -502,-215 135,-710 253,-66 424,-511 -257,-85 -220,287 -414,-222 -94,-246 72,-157 76,-631l-343 -170c52,-472 105,-297 178,-605l-31 25 -1697 -26c52,470 182,565 384,895l94 159c6,11 19,36 29,54 -222,316 -99,64 -389,304 -17,335 29,666 -49,966 -71,272 -53,74 -58,190l35 449c-23,216 -61,445 -114,602 -373,-64 -491,-232 -815,-367 -18,-375 80,-416 -75,-681l-318 -508c-307,-684 -678,-696 361,-656 -82,-152 -478,-540 -631,-600 -71,146 -10,212 36,418 -348,69 -315,140 -528,319l173 421c-758,70 -659,-491 -1839,-106 -51,17 -211,52 -275,67 93,207 68,72 94,385l-473 480c-417,-1 -375,68 -597,-158 -177,388 191,305 -464,325 72,159 129,158 38,337 -471,-55 -201,63 -426,-347 -293,67 -495,260 -696,317 -392,110 -410,39 -583,152 -650,421 404,-123 -170,124l-81 -106c-306,-274 142,11 -142,-112 -144,-63 -311,-42 -459,-38 -17,-21 -32,-32 -39,-69 -7,-36 -29,-52 -39,-65 -100,-144 -135,-388 -701,5l-584 741c-478,-42 -727,-321 -1243,-136 -345,124 -33,271 -461,91 -240,-100 29,-173 -597,-176 75,567 224,88 170,319 -154,13 -445,42 -591,20 -465,-69 -28,-21 -432,-190 -444,180 -425,281 -957,200l-804 -18c-13,3 -36,11 -50,15 -15,3 2,38 -241,60 -577,51 -432,-257 -1079,-43 -263,86 -435,105 -708,-23 -220,-104 130,-9 -252,-116l-170 484c-413,-132 144,-109 -331,-106 -429,3 52,25 -351,101 -189,-377 171,-278 -333,-301 -374,-17 -516,411 -816,590 -306,184 -117,-16 -300,370 -580,32 -869,-45 -1193,223 -404,-417 -1092,-75 -2219,-169 -296,-24 -385,24 -540,42 -95,10 -306,-17 -370,-47 -187,-87 -125,-140 -291,-315 -61,486 -213,195 -688,165 -66,274 -127,339 -206,642 -1587,99 -669,-23 -1270,-231 -163,-57 -374,-21 -552,-17l-171 503c-578,45 -793,107 -1276,-31 -483,-139 -295,17 -599,-18 -291,-34 -178,-97 -426,-291 -758,198 -531,-89 -1233,366 -509,330 -744,290 -1429,297 -143,-196 -121,-222 -236,-415 -938,83 -856,587 -1376,750 -324,102 -795,74 -1066,-17 -168,-56 -121,-72 -290,-61 -11,1 -35,10 -46,10l-343 -84c82,-217 315,-252 178,-233 -70,-238 15,-122 -271,-319l-101 -60c-147,-68 -16,-48 -230,-56 0,321 -39,403 -252,596l-293 256c-267,-116 -292,-242 -295,-244l-325 102c-130,766 101,-77 -109,421 -9,20 -23,51 -38,74 -607,-48 -1440,123 -2013,-50 -518,-156 -200,98 -374,-271 -110,133 -270,132 -431,237 -306,199 35,-213 -138,127 65,372 23,381 362,519 786,46 2159,221 2980,99 691,-102 660,129 1273,87 415,-28 909,-112 1349,-205l1362 -415c566,-263 640,-74 1099,-72 308,0 66,-10 274,-62 163,-41 116,-31 306,-57 590,-81 535,-131 921,-261 20,-7 41,-15 62,-21 21,-7 43,-14 65,-19 379,-91 -325,37 148,-28 792,-109 1283,250 1963,188 787,-73 1219,145 2089,-79 556,-143 -170,63 185,-61 1047,-365 1352,-190 1652,-379 433,-271 577,-232 1301,-125 500,74 780,79 1259,-67 1015,-310 1255,171 1926,-182 298,-156 261,-70 262,-493 526,-50 290,-75 633,-164 154,-40 208,-33 355,-71 334,-85 -99,-38 252,-73 702,-71 -80,149 460,23l311 -36c2012,139 2352,-266 3114,-253 499,9 1021,68 1527,29l1033 -148c818,-394 613,-144 1709,-191 864,-37 1032,-340 1379,-84l387 213c19,8 42,17 61,25 554,237 919,296 1545,69 844,-305 1065,26 1685,17 200,-491 95,-519 814,-423 326,43 875,-69 1561,359 423,263 330,451 905,469 11,816 -20,280 526,655 151,104 -20,-5 109,126 -23,-119 -233,-470 -29,-1023 219,-591 520,-834 1117,-793 390,26 316,-11 472,217 300,285 73,356 -29,723 -47,168 -6,556 -13,839 492,7 483,-23 681,-397 62,-116 -30,-46 136,-215 371,-380 2011,12 2100,92 488,437 -518,583 -519,583 -485,222 156,166 -618,199 -612,26 -244,-5 -649,214 -260,140 -406,89 -596,260z"/>
    <path class="fil2" d="M26595 22116c51,144 113,367 177,487 629,-57 1211,-580 2245,-92l567 341 938 -488c514,355 -245,147 586,618 48,938 195,949 202,1529 19,1570 1404,646 3339,3455 253,367 368,324 902,317l-19 -351c-354,-30 -883,-389 -1001,-541 -125,-161 -14,58 -77,-152 -4,-14 -6,-40 -9,-55 -171,-854 -552,-1285 -831,-2129 -64,-191 -226,-387 -356,-553 -55,-70 -441,-434 -524,-488 -120,-79 -506,-177 -662,-277 -854,-546 -60,-2365 -2081,-1558 -685,274 -1170,207 -1815,-160 -574,-326 -499,-451 -1063,111 -400,-45 -216,-177 -518,-14z"/>
    <path class="fil3" d="M41971 29683c-242,-364 -319,-2815 -881,-2624 -70,-77 -204,-198 -276,-301 -183,-265 -220,-636 -345,-1010 -7,-22 -16,-42 -24,-65l-111 -381c-322,-88 -423,-506 -457,-688l-572 27c-6,279 259,975 406,1159 109,135 280,111 377,395l8 151c-21,310 -99,-2 110,527 50,127 41,127 92,252 8,18 17,41 24,59l52 109c219,370 1370,2431 1589,2397l8 -7z"/>
    <path class="fil3" d="M39044 24480c-11,-226 -96,-410 -268,-556 -220,-187 -278,-179 -669,-179 -86,-413 -2,69 -86,-326l-887 -15c-15,-449 175,-159 300,-400 -479,35 -414,-62 -814,117 -406,181 -954,270 -1414,241 -493,-31 -90,-157 -687,61 -32,374 -77,671 203,888 405,314 317,-61 411,713 638,60 231,21 564,370 266,278 396,34 560,-115 -131,-316 -377,-479 -303,-913 124,-737 493,47 179,-903l586 46c100,620 -186,290 195,1000 296,-7 210,-14 490,-176 221,-129 261,-149 532,-226 730,409 -523,-402 161,150 198,159 642,201 947,223z"/>
    <path class="fil4" d="M41963 29678c-685,-846 -954,-1312 -1589,-2385l-52 -109c-7,-18 -16,-41 -24,-59 -51,-125 -42,-125 -92,-252 -209,-529 -131,-217 -110,-527l-8 -151c-97,-284 -268,-260 -377,-395 -147,-184 -412,-880 -406,-1159 -72,-175 130,-151 -261,-161 -305,-22 -749,-64 -947,-223 -684,-552 569,259 -161,-150 -271,77 -311,97 -532,226 -280,162 -193,169 -490,176 -381,-710 -95,-380 -195,-1000l-586 -46c314,950 -55,166 -179,903 -74,434 172,597 303,913 -164,149 -294,393 -560,115 -333,-349 74,-310 -564,-370 -94,-774 -6,-399 -411,-713 -280,-217 -235,-514 -203,-888 597,-218 194,-92 687,-61 460,29 1008,-60 1414,-241 400,-178 335,-82 814,-117l196 15c190,-171 336,-120 596,-260 405,-219 37,-188 649,-214 774,-33 133,23 618,-199 1,0 1007,-146 519,-583 -89,-80 -1729,-472 -2100,-92 -166,169 -74,99 -136,215 -198,374 -189,404 -681,397 7,-283 -34,-671 13,-839 102,-367 329,-438 29,-723 -156,-228 -82,-191 -472,-217 -597,-41 -898,202 -1117,793 -204,553 6,904 29,1023 -129,-131 42,-22 -109,-126 -546,-375 -515,161 -526,-655 -575,-18 -482,-206 -905,-469 -686,-428 -1235,-316 -1561,-359 -719,-96 -614,-68 -814,423 -620,9 -841,-322 -1685,-17 -626,227 -991,168 -1545,-69 -19,-8 -42,-17 -61,-25l-387 -213c-347,-256 -515,47 -1379,84 -1096,47 -891,-203 -1709,191l-1033 148c-506,39 -1028,-20 -1527,-29 -762,-13 -1102,392 -3114,253l-311 36c-540,126 242,-94 -460,-23 -351,35 82,-12 -252,73 -147,38 -201,31 -355,71 -343,89 -107,114 -633,164 -1,423 36,337 -262,493 -671,353 -911,-128 -1926,182 -479,146 -759,141 -1259,67 -724,-107 -868,-146 -1301,125 -300,189 -605,14 -1652,379 -355,124 371,-82 -185,61 -870,224 -1302,6 -2089,79 -680,62 -1171,-297 -1963,-188 -473,65 231,-63 -148,28 -22,5 -44,12 -65,19 -21,6 -42,14 -62,21 -386,130 -331,180 -921,261 -190,26 -143,16 -306,57 -208,52 34,62 -274,62 -459,-2 -533,-191 -1099,72l-1362 415c-440,93 -934,177 -1349,205 -613,42 -582,-189 -1273,-87 -821,122 -2194,-53 -2980,-99 -406,13 -178,-11 -243,399 -16,97 -7,429 -6,545 1527,-38 4298,106 5707,-53 840,-94 1111,-556 3018,-478 129,-183 360,-277 682,-309l883 -143c774,-130 965,286 1672,249 1029,-54 2978,-299 3825,-649l117 -53c437,-168 768,-42 1107,29 926,193 1214,-93 1764,-105l1526 -3c444,86 -17,-38 260,148 132,89 143,136 429,159 175,14 351,-17 513,-45 149,-26 121,-80 371,-37l367 120c94,-139 60,-99 188,-226 474,-474 944,-492 1463,-484 396,6 393,-88 745,-138 -163,-465 230,-224 -318,-307l3075 -115c731,-10 561,2 676,-150 965,22 41,-199 2039,-168 302,-163 118,-31 518,14 564,-562 489,-437 1063,-111 645,367 1130,434 1815,160 2021,-807 1227,1012 2081,1558 156,100 542,198 662,277 83,54 469,418 524,488 130,166 292,362 356,553 279,844 660,1275 831,2129 3,15 5,41 9,55 63,210 -48,-9 77,152 118,152 647,511 1001,541l19 351c156,328 132,-46 194,572 22,220 19,386 60,609 403,153 772,104 1069,-133 13,-11 33,-27 46,-38l590 -749c387,-25 875,-31 1230,105 1007,347 2014,694 3021,1041 54,-5 264,14 202,-12z"/>
   </g>
  </g>
  <polygon class="fil5" points="1,4 41963,4 41963,29690 1,29690 "/>
 </g>
</svg>
