<?xml version="1.0" encoding="UTF-8"?>
<!DOCTYPE svg PUBLIC "-//W3C//DTD SVG 1.1//EN" "http://www.w3.org/Graphics/SVG/1.1/DTD/svg11.dtd">
<!-- Creator: CorelDRAW X7 -->
<svg xmlns="http://www.w3.org/2000/svg" xml:space="preserve" width="420mm" height="297mm" version="1.1" style="shape-rendering:geometricPrecision; text-rendering:geometricPrecision; image-rendering:optimizeQuality; fill-rule:evenodd; clip-rule:evenodd"
viewBox="0 0 42000 29700"
 xmlns:xlink="http://www.w3.org/1999/xlink">
 <defs>
  <style type="text/css">
   <![CDATA[
    .str0 {stroke:#332C2B;stroke-width:20}
    .fil5 {fill:none}
    .fil0 {fill:#2C3D96}
    .fil1 {fill:#4EC1F0}
    .fil3 {fill:#92C64A}
    .fil4 {fill:#CF3C2D}
    .fil2 {fill:#FFF000}
   ]]>
  </style>
   <clipPath id="id0">
    <path d="M1 4l41962 0 0 29686 -41962 0 0 -29686z"/>
   </clipPath>
 </defs>
 <g id="Layer_x0020_1">
  <metadata id="CorelCorpID_0Corel-Layer"/>
  <polygon class="fil0" points="1,4 41963,4 41963,29690 1,29690 "/>
  <g style="clip-path:url(#id0)">
   <g id="_2595436108640">
    <path id="1" class="fil1" d="M6806 24827l-662 180c-23,9 -42,20 -67,28 -350,117 -376,23 -714,152 -638,242 -2028,253 -2586,-88 -22,-236 -55,-410 413,-652l374 -163c-132,-56 -225,-76 -364,-148 254,-827 359,-678 682,-799l362 -199c-9,-492 -127,-488 -137,-784 832,-240 333,27 786,-439 161,-166 84,-2 306,-197 27,-923 214,-792 796,-972l164 -63c467,-150 259,41 490,-242 -175,-701 -256,-52 -453,-487 252,-99 236,274 401,-244 80,-251 -81,-153 -111,-626l332 -189c-78,-469 -121,-291 -212,-594l33 23 1693 -123c-26,473 -150,576 -333,916l-85 164c-5,12 -17,38 -26,56 240,302 103,58 406,281 35,333 8,667 103,961 86,268 57,71 68,187l-8 451c35,214 85,441 147,595 369,-86 477,-260 793,-414 -3,-375 -103,-411 37,-683l288 -526c268,-700 638,-733 -397,-634 73,-156 446,-566 596,-635 79,142 22,211 -12,419 350,50 322,122 545,288l-149 431c760,27 630,-527 1830,-210 51,14 214,40 278,51 -81,212 -63,76 -72,390l500 453c416,-25 378,46 586,-191 199,376 -173,315 482,297 -63,163 -120,165 -19,339 467,-82 205,51 406,-370 296,50 509,231 713,277 398,87 411,15 591,118 672,384 -410,-99 176,115l75 -111c290,-291 -141,19 135,-120 141,-71 309,-59 456,-64 16,-21 31,-33 36,-71 5,-36 26,-53 35,-67 92,-149 113,-394 700,-34l626 706c474,-69 707,-361 1232,-206 352,104 49,269 466,65 233,-114 -39,-172 586,-209 -43,570 -218,100 -152,327 155,5 447,17 592,-13 460,-95 26,-23 420,-214 454,155 440,256 967,145l801 -63c14,2 37,9 51,12 15,3 0,38 244,46 580,18 418,-281 1075,-104 267,72 440,81 706,-63 213,-115 -131,-1 244,-129l198 473c405,-155 -150,-101 324,-125 429,-21 -50,28 356,81 168,-386 -186,-268 316,-319 372,-38 539,381 848,543 316,166 116,-22 320,353 581,-2 865,-95 1204,154 380,-438 1086,-136 2206,-294 295,-41 386,3 542,11 95,6 304,-34 366,-67 182,-97 117,-147 273,-331 88,481 224,182 696,125 81,270 146,332 242,630 1591,9 667,-61 1255,-303 159,-65 372,-42 551,-48l198 493c580,12 799,61 1272,-104 475,-165 296,1 597,-52 290,-50 173,-107 409,-314 769,154 526,-118 1252,295 528,301 760,248 1443,216 133,-203 109,-228 212,-428 942,31 889,538 1417,672 329,83 798,29 1064,-78 164,-66 117,-78 286,-77 10,0 35,8 46,8l338 -104c-94,-212 -329,-234 -191,-222 57,-242 -22,-122 253,-334l97 -66c143,-77 13,-49 226,-69 19,320 62,401 285,581l308 239c259,-131 277,-258 280,-261l330 84c174,757 -105,-71 133,414 10,20 26,50 43,72 602,-82 1444,41 2006,-163 509,-186 205,85 358,-293 118,127 278,117 444,213 316,181 -47,-211 145,119 -43,375 -2,381 -332,538 -782,90 -2143,343 -2969,268 -696,-63 -652,166 -1267,159 -416,-5 -913,-61 -1358,-129l-1384 -337c-579,-231 -642,-37 -1101,-10 -307,18 -66,-6 -277,-46 -165,-32 -118,-25 -308,-40 -595,-47 -542,-100 -935,-208 -20,-6 -42,-13 -63,-18 -22,-5 -43,-11 -66,-15 -384,-69 327,19 -149,-19 -797,-65 -1267,322 -1950,298 -789,-28 -1208,214 -2090,40 -563,-112 174,53 -187,-51 -1067,-305 -1361,-113 -1672,-284 -447,-247 -589,-199 -1306,-52 -495,102 -773,123 -1260,5 -1032,-252 -1243,241 -1933,-73 -306,-139 -264,-55 -290,-478 -528,-19 -293,-58 -641,-127 -156,-31 -209,-21 -359,-51 -338,-67 97,-44 -256,-59 -704,-32 88,144 -457,49l-313 -18c-2001,252 -2363,-133 -3124,-76 -496,37 -1015,125 -1523,115l-1039 -90c-839,-346 -620,-109 -1717,-94 -865,12 -1049,-281 -1381,-6l-374 235c-19,9 -42,20 -60,29 -540,267 -901,347 -1539,156 -859,-257 -1062,86 -1682,112 -227,-479 -124,-513 -836,-376 -323,62 -877,-20 -1538,446 -407,287 -304,469 -877,520 35,815 35,278 -489,684 -144,112 21,-6 -100,132 16,-120 205,-483 -30,-1023 -252,-578 -566,-803 -1159,-729 -388,48 -317,7 -460,243 -283,302 -53,360 70,720 56,166 37,555 61,837 -491,35 -484,5 -703,-358 -68,-112 27,-47 -147,-206 -393,-359 -2008,125 -2092,210 -462,465 550,553 551,553 497,194 -146,175 628,164 612,-8 243,-19 660,176 268,126 411,67 610,227z"/>
    <path class="fil2" d="M17773 23300c-44,147 -93,374 -149,497 -632,-21 -1242,-511 -2247,35l-547 373 -964 -435c-493,384 252,134 -551,651 6,939 -141,958 -115,1538 70,1568 -1365,724 -3138,3638 -231,381 -349,345 -883,367l0 -351c351,-50 860,-438 968,-596 116,-169 18,57 69,-157 3,-14 4,-40 6,-55 122,-863 478,-1314 709,-2173 53,-194 203,-399 324,-572 51,-73 415,-458 495,-517 116,-86 496,-205 646,-313 822,-594 -74,-2365 1989,-1674 699,235 1180,140 1804,-263 554,-357 472,-478 1067,51 397,-68 206,-189 517,-44z"/>
    <path class="fil3" d="M-2101 29849c702,39 824,-229 1695,-350 737,-103 -66,411 407,191 179,-17 520,54 1549,-579 654,-402 221,65 1005,40 441,-15 520,-143 1025,-95 66,-81 192,-209 258,-316 169,-275 184,-647 288,-1028 6,-22 14,-43 20,-66l89 -387c317,-106 394,-529 418,-712l572 -6c22,278 -203,988 -340,1180 -100,141 -272,127 -353,416l1 151c38,308 98,-8 -81,533 -42,129 -33,128 -78,256 -6,19 -14,42 -20,60l-46 112c-198,382 -764,637 -1293,367 -3,5 -118,154 -150,199 -196,273 -109,165 -125,396l-10 118c-649,422 -733,-853 -1264,-11 -113,-80 -223,-82 -316,-362l-230 363c-638,-19 -547,87 -929,101 -69,2 -321,-35 -421,-103 -167,-112 -2,38 -130,-138 -13,-18 -59,-145 -74,-169 -415,119 -354,23 -625,25 -487,4 -448,286 -464,348 -192,731 -32,442 -310,541 -241,-285 -152,-944 -68,-1075z"/>
    <path class="fil3" d="M5477 26365c-2,-226 72,-414 236,-570 209,-199 267,-194 658,-216 63,-418 6,69 67,-331l885 -65c-11,-449 -183,-149 -322,-382 480,7 409,-85 819,70 416,158 968,216 1425,161 491,-59 82,-162 690,22 53,371 114,666 -153,898 -386,336 -319,-43 -369,736 -634,95 -230,33 -542,400 -250,294 -394,57 -566,-83 113,-323 349,-499 251,-928 -166,-729 -490,74 -230,-892l-583 80c-64,624 202,279 -137,1009 -297,10 -211,-2 -500,-149 -228,-116 -269,-133 -544,-194 -705,449 500,-432 -152,158 -188,170 -630,237 -933,276z"/>
    <path class="fil4" d="M457 30337c97,-15 232,-25 463,-18l230 -363c93,280 203,282 316,362 531,-842 615,433 1264,11l10 -118c16,-231 -71,-123 125,-396 32,-45 147,-194 150,-199 529,270 1095,15 1293,-367l46 -112c6,-18 14,-41 20,-60 45,-128 36,-127 78,-256 179,-541 119,-225 81,-533l-1 -151c81,-289 253,-275 353,-416 137,-192 362,-902 340,-1180 63,-179 -138,-144 252,-176 303,-39 745,-106 933,-276 652,-590 -553,291 152,-158 275,61 316,78 544,194 289,147 203,159 500,149 339,-730 73,-385 137,-1009l583 -80c-260,966 64,163 230,892 98,429 -138,605 -251,928 172,140 316,377 566,83 312,-367 -92,-305 542,-400 50,-779 -17,-400 369,-736 267,-232 206,-527 152,-898 -607,-184 -198,-81 -689,-22 -457,55 -1009,-3 -1425,-161 -410,-155 -339,-63 -819,-70l-195 26c-199,-160 -342,-101 -610,-227 -417,-195 -48,-184 -660,-176 -774,11 -131,30 -628,-164 -1,0 -1013,-88 -551,-553 84,-85 1699,-569 2092,-210 174,159 79,94 147,206 219,363 212,393 703,358 -24,-282 -5,-671 -61,-837 -123,-360 -353,-418 -70,-720 143,-236 72,-195 460,-243 593,-74 907,151 1159,729 235,540 46,903 30,1023 121,-138 -44,-20 100,-132 524,-406 524,131 489,-684 573,-51 470,-233 877,-520 661,-466 1215,-384 1538,-446 712,-137 610,-103 836,376 620,-26 823,-369 1682,-112 638,191 999,111 1539,-156 18,-9 41,-19 60,-29l374 -235c332,-275 516,18 1381,6 1097,-15 878,-252 1717,94l1039 90c508,10 1027,-78 1524,-115 760,-57 1122,328 3123,76l313 18c545,95 -247,-81 457,-49 353,15 -82,-8 256,59 150,30 203,20 359,51 348,69 113,108 641,127 26,423 -16,339 290,478 690,314 901,-179 1933,73 487,118 765,97 1260,-5 717,-147 859,-195 1306,52 311,171 605,-21 1672,284 361,104 -376,-61 187,51 882,174 1301,-68 2090,-40 683,24 1153,-363 1950,-298 476,38 -235,-50 149,19 23,4 44,10 66,15 21,5 43,12 63,18 393,108 340,161 935,208 190,15 143,8 308,40 211,40 -30,64 277,46 459,-27 522,-221 1101,10l1384 337c445,68 942,124 1358,129 615,7 571,-222 1267,-159 826,75 2187,-178 2969,-268 406,-9 177,-21 266,385 20,96 30,428 36,544 -1526,48 -4285,349 -5701,270 -844,-47 -1141,-493 -3040,-307 -139,-175 -375,-256 -699,-270l-889 -92c-781,-86 -947,340 -1656,343 -1030,4 -2990,-131 -3855,-431l-120 -47c-446,-143 -769,2 -1104,92 -912,245 -1216,-25 -1766,-6l-1524 84c-438,111 14,-40 -251,162 -127,97 -136,144 -420,183 -174,24 -351,3 -515,-15 -149,-18 -125,-73 -372,-17l-360 141c-101,-134 -65,-95 -200,-215 -500,-446 -971,-438 -1488,-401 -395,28 -398,-65 -752,-95 137,-473 -242,-211 300,-325l-3076 59c-730,32 -560,34 -683,-111 -963,77 -53,-196 -2045,-53 -311,-145 -120,-24 -517,44 -595,-529 -513,-408 -1067,-51 -624,403 -1105,498 -1804,263 -2063,-691 -1167,1080 -1989,1674 -150,108 -530,227 -646,313 -80,59 -444,444 -495,517 -121,173 -271,378 -324,572 -231,859 -587,1310 -709,2173 -2,15 -3,41 -6,55 -51,214 47,-12 -69,157 -108,158 -617,546 -968,596l0 351c-137,337 -134,-38 -161,583 -10,220 3,386 -25,611 -394,176 -765,148 -1075,-72 -14,-10 -34,-26 -48,-36l-632 -714c-387,-3 -875,19 -1221,174l-617 423c-307,334 -523,692 -543,1050 -2,29 -18,37 -23,62l-681 46 15 612c-14,10 -64,67 -116,103 -382,263 -700,-15 -879,380 189,420 -168,132 843,180 -142,360 -833,419 -1107,253l-104 -68c-157,-93 -13,-47 -222,-109l-913 -186c-312,-48 -595,59 -975,99l249 385 -297 -45 -190 -3358z"/>
   </g>
  </g>
  <polygon class="fil5" points="1,4 41963,4 41963,29690 1,29690 "/>
  <g id="_2595436106176">
   <line class="fil5 str0" x1="20982" y1="4" x2="20982" y2= "4" />
  </g>
  <g id="_2595436107232">
   <line class="fil5 str0" x1="20982" y1="4" x2="20982" y2= "4" />
  </g>
 </g>
</svg>
