<?xml version="1.0" encoding="UTF-8"?>
<!DOCTYPE svg PUBLIC "-//W3C//DTD SVG 1.1//EN" "http://www.w3.org/Graphics/SVG/1.1/DTD/svg11.dtd">
<!-- Creator: CorelDRAW X7 -->
<svg xmlns="http://www.w3.org/2000/svg" xml:space="preserve" width="123mm" height="123mm" version="1.1" style="shape-rendering:geometricPrecision; text-rendering:geometricPrecision; image-rendering:optimizeQuality; fill-rule:evenodd; clip-rule:evenodd"
viewBox="0 0 12300 12300"
 xmlns:xlink="http://www.w3.org/1999/xlink">
 <defs>
  <style type="text/css">
   <![CDATA[
    .str0 {stroke:white;stroke-width:100}
    .str1 {stroke:#1A1A1A;stroke-width:50}
    .fil220 {fill:none}
    .fil1 {fill:#252424}
    .fil2 {fill:#262525}
    .fil3 {fill:#272626}
    .fil4 {fill:#282727}
    .fil5 {fill:#292828}
    .fil6 {fill:#2A2929}
    .fil7 {fill:#2B2A2A}
    .fil8 {fill:#2C2B2B}
    .fil9 {fill:#2D2C2C}
    .fil10 {fill:#2E2D2D}
    .fil11 {fill:#2F2E2E}
    .fil12 {fill:#302F2F}
    .fil13 {fill:#313030}
    .fil14 {fill:#323131}
    .fil15 {fill:#333232}
    .fil16 {fill:#343333}
    .fil17 {fill:#353434}
    .fil18 {fill:#363535}
    .fil19 {fill:#373636}
    .fil20 {fill:#383737}
    .fil21 {fill:#393838}
    .fil22 {fill:#3A3939}
    .fil23 {fill:#3B3A3A}
    .fil24 {fill:#3C3B3B}
    .fil25 {fill:#3D3C3C}
    .fil26 {fill:#3E3D3D}
    .fil27 {fill:#3F3E3E}
    .fil28 {fill:#403F3F}
    .fil29 {fill:#414040}
    .fil30 {fill:#424141}
    .fil31 {fill:#424242}
    .fil32 {fill:#434242}
    .fil33 {fill:#444343}
    .fil34 {fill:#454444}
    .fil35 {fill:#454545}
    .fil36 {fill:#464545}
    .fil219 {fill:#474443}
    .fil37 {fill:#474646}
    .fil38 {fill:#484747}
    .fil39 {fill:#484848}
    .fil40 {fill:#494848}
    .fil41 {fill:#4A4949}
    .fil42 {fill:#4B4A4A}
    .fil43 {fill:#4B4B4B}
    .fil44 {fill:#4C4B4B}
    .fil45 {fill:#4D4C4C}
    .fil46 {fill:#4E4D4D}
    .fil47 {fill:#4E4E4E}
    .fil48 {fill:#4F4E4E}
    .fil49 {fill:#504F4F}
    .fil50 {fill:#515050}
    .fil51 {fill:#515151}
    .fil52 {fill:#525151}
    .fil53 {fill:#535252}
    .fil54 {fill:#545353}
    .fil55 {fill:#545454}
    .fil56 {fill:#555454}
    .fil57 {fill:#565555}
    .fil58 {fill:#575656}
    .fil59 {fill:#575757}
    .fil60 {fill:#585757}
    .fil61 {fill:#595858}
    .fil62 {fill:#5A5959}
    .fil63 {fill:#5A5A5A}
    .fil64 {fill:#5B5A5A}
    .fil65 {fill:#5C5B5B}
    .fil66 {fill:#5D5C5C}
    .fil67 {fill:#5D5D5D}
    .fil68 {fill:#5E5D5D}
    .fil69 {fill:#5F5E5E}
    .fil70 {fill:#605F5F}
    .fil71 {fill:#606060}
    .fil72 {fill:#616060}
    .fil73 {fill:#626161}
    .fil74 {fill:#636262}
    .fil75 {fill:#636363}
    .fil76 {fill:#646363}
    .fil77 {fill:#656464}
    .fil78 {fill:#666565}
    .fil79 {fill:#666666}
    .fil80 {fill:#676666}
    .fil81 {fill:#686767}
    .fil82 {fill:#696868}
    .fil83 {fill:dimgray}
    .fil84 {fill:#6A6969}
    .fil85 {fill:#6B6A6A}
    .fil86 {fill:#6C6B6B}
    .fil87 {fill:#6C6C6C}
    .fil88 {fill:#6D6C6C}
    .fil89 {fill:#6E6D6D}
    .fil90 {fill:#6F6E6E}
    .fil91 {fill:#6F6F6F}
    .fil92 {fill:#706F6F}
    .fil93 {fill:#717070}
    .fil94 {fill:#727171}
    .fil95 {fill:#727272}
    .fil96 {fill:#737272}
    .fil97 {fill:#747373}
    .fil98 {fill:#757474}
    .fil99 {fill:#757575}
    .fil100 {fill:#767575}
    .fil101 {fill:#777676}
    .fil102 {fill:#787777}
    .fil103 {fill:#787878}
    .fil104 {fill:#797878}
    .fil105 {fill:#797979}
    .fil106 {fill:#7A7979}
    .fil107 {fill:#7B7A7A}
    .fil108 {fill:#7B7B7B}
    .fil109 {fill:#7C7B7B}
    .fil110 {fill:#7C7C7C}
    .fil111 {fill:#7D7D7D}
    .fil112 {fill:#7E7D7D}
    .fil113 {fill:#7E7E7E}
    .fil114 {fill:#7F7E7E}
    .fil115 {fill:#7F7F7F}
    .fil116 {fill:gray}
    .fil117 {fill:#818080}
    .fil118 {fill:#818181}
    .fil119 {fill:#828181}
    .fil120 {fill:#828282}
    .fil121 {fill:#838383}
    .fil122 {fill:#848383}
    .fil123 {fill:#848484}
    .fil124 {fill:#858484}
    .fil125 {fill:#858585}
    .fil126 {fill:#868686}
    .fil127 {fill:#878686}
    .fil128 {fill:#878787}
    .fil129 {fill:#888787}
    .fil130 {fill:#888888}
    .fil131 {fill:#898989}
    .fil132 {fill:#8A8989}
    .fil133 {fill:#8A8A8A}
    .fil134 {fill:#8B8A8A}
    .fil135 {fill:#8B8B8B}
    .fil136 {fill:#8C8C8C}
    .fil137 {fill:#8D8C8C}
    .fil138 {fill:#8D8D8D}
    .fil139 {fill:#8E8D8D}
    .fil140 {fill:#8E8E8E}
    .fil141 {fill:#8F8F8F}
    .fil142 {fill:#908F8F}
    .fil143 {fill:#909090}
    .fil144 {fill:#919090}
    .fil145 {fill:#919191}
    .fil146 {fill:#939292}
    .fil147 {fill:#949494}
    .fil148 {fill:#969595}
    .fil149 {fill:#979797}
    .fil150 {fill:#999898}
    .fil151 {fill:#9A9A9A}
    .fil152 {fill:#9C9B9B}
    .fil153 {fill:#9D9D9D}
    .fil154 {fill:#9F9E9E}
    .fil155 {fill:#A0A0A0}
    .fil156 {fill:#A2A1A1}
    .fil157 {fill:#A3A3A3}
    .fil158 {fill:#A5A4A4}
    .fil159 {fill:#A6A6A6}
    .fil160 {fill:#A7A7A7}
    .fil161 {fill:darkgray}
    .fil162 {fill:#AAAAAA}
    .fil163 {fill:#ACABAB}
    .fil164 {fill:#ADADAD}
    .fil165 {fill:#AFAEAE}
    .fil166 {fill:#B0B0B0}
    .fil167 {fill:#B2B1B1}
    .fil168 {fill:#B3B3B3}
    .fil169 {fill:#B5B4B4}
    .fil170 {fill:#B6B6B6}
    .fil171 {fill:#B8B7B7}
    .fil172 {fill:#B9B9B9}
    .fil173 {fill:#BBBABA}
    .fil174 {fill:#BCBCBC}
    .fil175 {fill:#BDBDBD}
    .fil176 {fill:#BFBFBF}
    .fil177 {fill:silver}
    .fil178 {fill:#C2C2C2}
    .fil179 {fill:#C3C3C3}
    .fil180 {fill:#C5C5C5}
    .fil181 {fill:#C6C6C6}
    .fil182 {fill:#C8C7C7}
    .fil183 {fill:#C9C9C9}
    .fil184 {fill:#CBCACA}
    .fil185 {fill:#CCCCCC}
    .fil186 {fill:#CECDCD}
    .fil187 {fill:#CFCFCF}
    .fil188 {fill:#D1D0D0}
    .fil189 {fill:#D2D2D2}
    .fil190 {fill:lightgrey}
    .fil191 {fill:#D5D5D5}
    .fil192 {fill:#D6D6D6}
    .fil193 {fill:#D8D8D8}
    .fil194 {fill:#D9D9D9}
    .fil195 {fill:#DBDBDB}
    .fil196 {fill:gainsboro}
    .fil197 {fill:#DEDEDE}
    .fil198 {fill:#DFDFDF}
    .fil199 {fill:#E1E1E1}
    .fil200 {fill:#E2E2E2}
    .fil201 {fill:#E4E3E3}
    .fil202 {fill:#E5E5E5}
    .fil221 {fill:#E62129}
    .fil203 {fill:#E7E6E6}
    .fil204 {fill:#E8E8E8}
    .fil205 {fill:#E9E9E9}
    .fil206 {fill:#EBEBEB}
    .fil207 {fill:#ECECEC}
    .fil208 {fill:#EEEEEE}
    .fil209 {fill:#EFEFEF}
    .fil210 {fill:#F1F1F1}
    .fil211 {fill:#F2F2F2}
    .fil212 {fill:#F4F4F4}
    .fil213 {fill:whitesmoke}
    .fil214 {fill:#F7F7F7}
    .fil215 {fill:#F8F8F8}
    .fil216 {fill:#FAFAFA}
    .fil217 {fill:#FBFBFB}
    .fil218 {fill:#FDFDFD}
    .fil0 {fill:#FEFEFE}
    .fil222 {fill:#FEFEFE;fill-rule:nonzero}
   ]]>
  </style>
    <clipPath id="id0">
     <path d="M6299 389c3205,0 5803,2598 5803,5803 0,3205 -2598,5803 -5803,5803 -3205,0 -5803,-2598 -5803,-5803 0,-3205 2598,-5803 5803,-5803z"/>
    </clipPath>
   <clipPath id="id1">
    <path d="M6299 389c3205,0 5803,2598 5803,5803 0,3205 -2598,5803 -5803,5803 -3205,0 -5803,-2598 -5803,-5803 0,-3205 2598,-5803 5803,-5803z"/>
   </clipPath>
 </defs>
 <g id="Layer_x0020_1">
  <metadata id="CorelCorpID_0Corel-Layer"/>
  <g>
   <g style="clip-path:url(#id0)">
    <g>
     <polygon class="fil0" points="496,389 12102,389 12102,11995 496,11995 "/>
    </g>
    <polygon id="1" class="fil1" points="6265,6158 6333,6158 6333,6226 6265,6226 "/>
    <path id="2" class="fil2" d="M6276 6169l45 0 0 46 -45 0 0 -46zm-34 -34l113 0 0 114 -113 0 0 -114z"/>
    <path id="3" class="fil2" d="M6253 6147l91 0 0 90 -91 0 0 -90zm-34 -34l159 0 0 158 -159 0 0 -158z"/>
    <path id="4" class="fil3" d="M6231 6124l136 0 0 136 -136 0 0 -136zm-34 -34l204 0 0 204 -204 0 0 -204z"/>
    <path id="5" class="fil3" d="M6208 6101l181 0 0 182 -181 0 0 -182zm-34 -34l249 0 0 250 -249 0 0 -250z"/>
    <path id="6" class="fil4" d="M6185 6079l227 0 0 226 -227 0 0 -226zm-34 -34l295 0 0 294 -295 0 0 -294z"/>
    <path id="7" class="fil5" d="M6163 6056l272 0 0 272 -272 0 0 -272zm-34 -34l340 0 0 340 -340 0 0 -340z"/>
    <path id="8" class="fil5" d="M6140 6033l317 0 0 318 -317 0 0 -318zm-34 -34l385 0 0 386 -385 0 0 -386z"/>
    <path id="9" class="fil6" d="M6117 6011l363 0 0 362 -363 0 0 -362zm-34 -34l431 0 0 430 -431 0 0 -430z"/>
    <path id="10" class="fil6" d="M6095 5988l408 0 0 408 -408 0 0 -408zm-34 -34l476 0 0 476 -476 0 0 -476z"/>
    <path id="11" class="fil7" d="M6072 5965l453 0 0 454 -453 0 0 -454zm-34 -34l521 0 0 522 -521 0 0 -522z"/>
    <path id="12" class="fil8" d="M6049 5943l499 0 0 498 -499 0 0 -498zm-34 -34l567 0 0 566 -567 0 0 -566z"/>
    <path id="13" class="fil8" d="M6027 5920l544 0 0 544 -544 0 0 -544zm-34 -34l612 0 0 612 -612 0 0 -612z"/>
    <path id="14" class="fil9" d="M6004 5897l589 0 0 590 -589 0 0 -590zm-34 -34l658 0 0 658 -658 0 0 -658z"/>
    <path id="15" class="fil9" d="M5981 5875l635 0 0 634 -635 0 0 -634zm-34 -34l703 0 0 702 -703 0 0 -702z"/>
    <path id="16" class="fil10" d="M5959 5852l680 0 0 680 -680 0 0 -680zm-34 -34l748 0 0 748 -748 0 0 -748z"/>
    <path id="17" class="fil11" d="M5936 5829l726 0 0 726 -726 0 0 -726zm-34 -34l794 0 0 794 -794 0 0 -794z"/>
    <path id="18" class="fil11" d="M5913 5807l771 0 0 770 -771 0 0 -770zm-34 -34l839 0 0 838 -839 0 0 -838z"/>
    <path id="19" class="fil12" d="M5891 5784l816 0 0 816 -816 0 0 -816zm-34 -34l884 0 0 884 -884 0 0 -884z"/>
    <path id="20" class="fil12" d="M5868 5761l862 0 0 862 -862 0 0 -862zm-34 -34l930 0 0 930 -930 0 0 -930z"/>
    <path id="21" class="fil13" d="M5845 5739l907 0 0 906 -907 0 0 -906zm-34 -35l975 0 0 975 -975 0 0 -975z"/>
    <path id="22" class="fil14" d="M5823 5716l952 0 0 952 -952 0 0 -952zm-34 -34l1020 0 0 1020 -1020 0 0 -1020z"/>
    <path id="23" class="fil14" d="M5800 5693l998 0 0 998 -998 0 0 -998zm-34 -34l1066 0 0 1066 -1066 0 0 -1066z"/>
    <path id="24" class="fil15" d="M5777 5670l1043 0 0 1043 -1043 0 0 -1043zm-34 -34l1111 0 0 1111 -1111 0 0 -1111z"/>
    <path id="25" class="fil15" d="M5755 5648l1088 0 0 1088 -1088 0 0 -1088zm-34 -34l1156 0 0 1156 -1156 0 0 -1156z"/>
    <path id="26" class="fil16" d="M5732 5625l1134 0 0 1134 -1134 0 0 -1134zm-34 -34l1202 0 0 1202 -1202 0 0 -1202z"/>
    <path id="27" class="fil17" d="M5709 5602l1179 0 0 1179 -1179 0 0 -1179zm-34 -34l1247 0 0 1247 -1247 0 0 -1247z"/>
    <path id="28" class="fil17" d="M5687 5580l1224 0 0 1224 -1224 0 0 -1224zm-34 -34l1292 0 0 1292 -1292 0 0 -1292z"/>
    <path id="29" class="fil18" d="M5664 5557l1270 0 0 1270 -1270 0 0 -1270zm-34 -34l1338 0 0 1338 -1338 0 0 -1338z"/>
    <path id="30" class="fil18" d="M5641 5534l1315 0 0 1315 -1315 0 0 -1315zm-34 -34l1383 0 0 1383 -1383 0 0 -1383z"/>
    <path id="31" class="fil19" d="M5619 5512l1360 0 0 1360 -1360 0 0 -1360zm-34 -34l1428 0 0 1428 -1428 0 0 -1428z"/>
    <path id="32" class="fil20" d="M5596 5489l1406 0 0 1406 -1406 0 0 -1406zm-34 -34l1474 0 0 1474 -1474 0 0 -1474z"/>
    <path id="33" class="fil20" d="M5573 5466l1451 0 0 1451 -1451 0 0 -1451zm-34 -34l1519 0 0 1519 -1519 0 0 -1519z"/>
    <path id="34" class="fil21" d="M5551 5444l1496 0 0 1496 -1496 0 0 -1496zm-34 -34l1564 0 0 1564 -1564 0 0 -1564z"/>
    <path id="35" class="fil21" d="M5528 5421l1542 0 0 1542 -1542 0 0 -1542zm-34 -34l1610 0 0 1610 -1610 0 0 -1610z"/>
    <path id="36" class="fil22" d="M5505 5398l1587 0 0 1587 -1587 0 0 -1587zm-34 -34l1655 0 0 1655 -1655 0 0 -1655z"/>
    <path id="37" class="fil23" d="M5483 5376l1632 0 0 1632 -1632 0 0 -1632zm-34 -34l1700 0 0 1700 -1700 0 0 -1700z"/>
    <path id="38" class="fil23" d="M5460 5353l1678 0 0 1678 -1678 0 0 -1678zm-34 -34l1746 0 0 1746 -1746 0 0 -1746z"/>
    <path id="39" class="fil24" d="M5437 5330l1723 0 0 1723 -1723 0 0 -1723zm-34 -34l1791 0 0 1791 -1791 0 0 -1791z"/>
    <path id="40" class="fil24" d="M5415 5308l1768 0 0 1768 -1768 0 0 -1768zm-34 -34l1836 0 0 1836 -1836 0 0 -1836z"/>
    <path id="41" class="fil25" d="M5392 5285l1814 0 0 1814 -1814 0 0 -1814zm-34 -34l1882 0 0 1882 -1882 0 0 -1882z"/>
    <path id="42" class="fil26" d="M5369 5262l1859 0 0 1859 -1859 0 0 -1859zm-34 -34l1927 0 0 1927 -1927 0 0 -1927z"/>
    <path id="43" class="fil26" d="M5347 5240l1904 0 0 1904 -1904 0 0 -1904zm-34 -34l1972 0 0 1972 -1972 0 0 -1972z"/>
    <path id="44" class="fil27" d="M5324 5217l1950 0 0 1950 -1950 0 0 -1950zm-34 -34l2018 0 0 2018 -2018 0 0 -2018z"/>
    <path id="45" class="fil27" d="M5301 5194l1995 0 0 1995 -1995 0 0 -1995zm-34 -34l2063 0 0 2063 -2063 0 0 -2063z"/>
    <path id="46" class="fil28" d="M5279 5172l2040 0 0 2040 -2040 0 0 -2040zm-34 -34l2108 0 0 2108 -2108 0 0 -2108z"/>
    <path id="47" class="fil29" d="M5256 5149l2086 0 0 2086 -2086 0 0 -2086zm-34 -34l2154 0 0 2154 -2154 0 0 -2154z"/>
    <path id="48" class="fil29" d="M5233 5126l2131 0 0 2131 -2131 0 0 -2131zm-34 -34l2199 0 0 2199 -2199 0 0 -2199z"/>
    <path id="49" class="fil30" d="M5211 5104l2176 0 0 2176 -2176 0 0 -2176zm-34 -34l2244 0 0 2244 -2244 0 0 -2244z"/>
    <path id="50" class="fil31" d="M5188 5081l2222 0 0 2222 -2222 0 0 -2222zm-34 -34l2290 0 0 2290 -2290 0 0 -2290z"/>
    <path id="51" class="fil32" d="M5165 5058l2267 0 0 2267 -2267 0 0 -2267zm-34 -34l2335 0 0 2335 -2335 0 0 -2335z"/>
    <path id="52" class="fil33" d="M5143 5036l2312 0 0 2312 -2312 0 0 -2312zm-34 -34l2380 0 0 2380 -2380 0 0 -2380z"/>
    <path id="53" class="fil33" d="M5120 5013l2358 0 0 2358 -2358 0 0 -2358zm-34 -34l2426 0 0 2426 -2426 0 0 -2426z"/>
    <path id="54" class="fil34" d="M5097 4990l2403 0 0 2403 -2403 0 0 -2403zm-34 -34l2471 0 0 2471 -2471 0 0 -2471z"/>
    <path id="55" class="fil35" d="M5075 4968l2448 0 0 2448 -2448 0 0 -2448zm-34 -34l2516 0 0 2516 -2516 0 0 -2516z"/>
    <path id="56" class="fil36" d="M5052 4945l2494 0 0 2494 -2494 0 0 -2494zm-34 -34l2562 0 0 2562 -2562 0 0 -2562z"/>
    <path id="57" class="fil37" d="M5029 4922l2539 0 0 2539 -2539 0 0 -2539zm-34 -34l2607 0 0 2607 -2607 0 0 -2607z"/>
    <path id="58" class="fil37" d="M5007 4900l2584 0 0 2584 -2584 0 0 -2584zm-34 -34l2652 0 0 2652 -2652 0 0 -2652z"/>
    <path id="59" class="fil38" d="M4984 4877l2630 0 0 2630 -2630 0 0 -2630zm-34 -34l2698 0 0 2698 -2698 0 0 -2698z"/>
    <path id="60" class="fil39" d="M4961 4854l2675 0 0 2675 -2675 0 0 -2675zm-34 -34l2743 0 0 2743 -2743 0 0 -2743z"/>
    <path id="61" class="fil40" d="M4939 4832l2720 0 0 2720 -2720 0 0 -2720zm-34 -34l2788 0 0 2788 -2788 0 0 -2788z"/>
    <path id="62" class="fil41" d="M4916 4809l2766 0 0 2766 -2766 0 0 -2766zm-34 -34l2834 0 0 2834 -2834 0 0 -2834z"/>
    <path id="63" class="fil41" d="M4893 4786l2811 0 0 2811 -2811 0 0 -2811zm-34 -34l2879 0 0 2879 -2879 0 0 -2879z"/>
    <path id="64" class="fil42" d="M4871 4764l2856 0 0 2856 -2856 0 0 -2856zm-34 -34l2924 0 0 2924 -2924 0 0 -2924z"/>
    <path id="65" class="fil43" d="M4848 4741l2902 0 0 2902 -2902 0 0 -2902zm-34 -34l2970 0 0 2970 -2970 0 0 -2970z"/>
    <path id="66" class="fil44" d="M4825 4718l2947 0 0 2947 -2947 0 0 -2947zm-34 -34l3015 0 0 3015 -3015 0 0 -3015z"/>
    <path id="67" class="fil45" d="M4803 4696l2992 0 0 2992 -2992 0 0 -2992zm-34 -34l3060 0 0 3060 -3060 0 0 -3060z"/>
    <path id="68" class="fil45" d="M4780 4673l3038 0 0 3038 -3038 0 0 -3038zm-34 -34l3106 0 0 3106 -3106 0 0 -3106z"/>
    <path id="69" class="fil46" d="M4757 4650l3083 0 0 3083 -3083 0 0 -3083zm-34 -34l3151 0 0 3151 -3151 0 0 -3151z"/>
    <path id="70" class="fil47" d="M4735 4628l3128 0 0 3128 -3128 0 0 -3128zm-34 -34l3196 0 0 3196 -3196 0 0 -3196z"/>
    <path id="71" class="fil48" d="M4712 4605l3174 0 0 3174 -3174 0 0 -3174zm-34 -34l3242 0 0 3242 -3242 0 0 -3242z"/>
    <path id="72" class="fil49" d="M4689 4582l3219 0 0 3219 -3219 0 0 -3219zm-34 -34l3287 0 0 3287 -3287 0 0 -3287z"/>
    <path id="73" class="fil49" d="M4667 4560l3264 0 0 3264 -3264 0 0 -3264zm-34 -34l3332 0 0 3332 -3332 0 0 -3332z"/>
    <path id="74" class="fil50" d="M4644 4537l3310 0 0 3310 -3310 0 0 -3310zm-34 -34l3378 0 0 3378 -3378 0 0 -3378z"/>
    <path id="75" class="fil51" d="M4621 4514l3355 0 0 3355 -3355 0 0 -3355zm-34 -34l3423 0 0 3423 -3423 0 0 -3423z"/>
    <path id="76" class="fil52" d="M4599 4492l3400 0 0 3400 -3400 0 0 -3400zm-34 -34l3468 0 0 3468 -3468 0 0 -3468z"/>
    <path id="77" class="fil53" d="M4576 4469l3446 0 0 3446 -3446 0 0 -3446zm-34 -34l3514 0 0 3514 -3514 0 0 -3514z"/>
    <path id="78" class="fil53" d="M4553 4446l3491 0 0 3491 -3491 0 0 -3491zm-34 -34l3559 0 0 3559 -3559 0 0 -3559z"/>
    <path id="79" class="fil54" d="M4531 4424l3536 0 0 3536 -3536 0 0 -3536zm-34 -34l3604 0 0 3604 -3604 0 0 -3604z"/>
    <path id="80" class="fil55" d="M4508 4401l3582 0 0 3582 -3582 0 0 -3582zm-34 -34l3650 0 0 3650 -3650 0 0 -3650z"/>
    <path id="81" class="fil56" d="M4485 4378l3627 0 0 3627 -3627 0 0 -3627zm-34 -34l3695 0 0 3695 -3695 0 0 -3695z"/>
    <path id="82" class="fil57" d="M4463 4356l3672 0 0 3672 -3672 0 0 -3672zm-34 -34l3740 0 0 3740 -3740 0 0 -3740z"/>
    <path id="83" class="fil57" d="M4440 4333l3718 0 0 3718 -3718 0 0 -3718zm-34 -34l3786 0 0 3786 -3786 0 0 -3786z"/>
    <path id="84" class="fil58" d="M4417 4310l3763 0 0 3763 -3763 0 0 -3763zm-34 -34l3831 0 0 3831 -3831 0 0 -3831z"/>
    <path id="85" class="fil59" d="M4395 4288l3808 0 0 3808 -3808 0 0 -3808zm-34 -34l3876 0 0 3876 -3876 0 0 -3876z"/>
    <path id="86" class="fil60" d="M4372 4265l3854 0 0 3854 -3854 0 0 -3854zm-34 -34l3922 0 0 3922 -3922 0 0 -3922z"/>
    <path id="87" class="fil61" d="M4349 4242l3899 0 0 3899 -3899 0 0 -3899zm-34 -34l3967 0 0 3967 -3967 0 0 -3967z"/>
    <path id="88" class="fil61" d="M4327 4220l3944 0 0 3944 -3944 0 0 -3944zm-34 -34l4012 0 0 4012 -4012 0 0 -4012z"/>
    <path id="89" class="fil62" d="M4304 4197l3990 0 0 3990 -3990 0 0 -3990zm-34 -34l4058 0 0 4058 -4058 0 0 -4058z"/>
    <path id="90" class="fil63" d="M4281 4174l4035 0 0 4035 -4035 0 0 -4035zm-34 -34l4103 0 0 4103 -4103 0 0 -4103z"/>
    <path id="91" class="fil64" d="M4259 4152l4080 0 0 4080 -4080 0 0 -4080zm-34 -34l4148 0 0 4148 -4148 0 0 -4148z"/>
    <path id="92" class="fil65" d="M4236 4129l4126 0 0 4126 -4126 0 0 -4126zm-34 -34l4194 0 0 4194 -4194 0 0 -4194z"/>
    <path id="93" class="fil65" d="M4213 4106l4171 0 0 4171 -4171 0 0 -4171zm-34 -34l4239 0 0 4239 -4239 0 0 -4239z"/>
    <path id="94" class="fil66" d="M4191 4084l4216 0 0 4216 -4216 0 0 -4216zm-34 -34l4284 0 0 4284 -4284 0 0 -4284z"/>
    <path id="95" class="fil67" d="M4168 4061l4262 0 0 4262 -4262 0 0 -4262zm-34 -34l4330 0 0 4330 -4330 0 0 -4330z"/>
    <path id="96" class="fil68" d="M4145 4038l4307 0 0 4307 -4307 0 0 -4307zm-34 -34l4375 0 0 4375 -4375 0 0 -4375z"/>
    <path id="97" class="fil69" d="M4123 4016l4352 0 0 4352 -4352 0 0 -4352zm-34 -34l4420 0 0 4420 -4420 0 0 -4420z"/>
    <path id="98" class="fil69" d="M4100 3993l4398 0 0 4398 -4398 0 0 -4398zm-34 -34l4466 0 0 4466 -4466 0 0 -4466z"/>
    <path id="99" class="fil70" d="M4077 3970l4443 0 0 4443 -4443 0 0 -4443zm-34 -34l4511 0 0 4511 -4511 0 0 -4511z"/>
    <path id="100" class="fil71" d="M4055 3948l4488 0 0 4488 -4488 0 0 -4488zm-34 -34l4556 0 0 4556 -4556 0 0 -4556z"/>
    <path id="101" class="fil72" d="M4032 3925l4534 0 0 4534 -4534 0 0 -4534zm-34 -34l4602 0 0 4602 -4602 0 0 -4602z"/>
    <path id="102" class="fil73" d="M4009 3902l4579 0 0 4579 -4579 0 0 -4579zm-34 -34l4647 0 0 4647 -4647 0 0 -4647z"/>
    <path id="103" class="fil73" d="M3987 3880l4624 0 0 4624 -4624 0 0 -4624zm-34 -34l4692 0 0 4692 -4692 0 0 -4692z"/>
    <path id="104" class="fil74" d="M3964 3857l4670 0 0 4670 -4670 0 0 -4670zm-34 -34l4738 0 0 4738 -4738 0 0 -4738z"/>
    <path id="105" class="fil75" d="M3941 3834l4715 0 0 4715 -4715 0 0 -4715zm-34 -34l4783 0 0 4783 -4783 0 0 -4783z"/>
    <path id="106" class="fil76" d="M3919 3812l4760 0 0 4760 -4760 0 0 -4760zm-34 -34l4828 0 0 4828 -4828 0 0 -4828z"/>
    <path id="107" class="fil77" d="M3896 3789l4806 0 0 4806 -4806 0 0 -4806zm-34 -34l4874 0 0 4874 -4874 0 0 -4874z"/>
    <path id="108" class="fil77" d="M3873 3766l4851 0 0 4851 -4851 0 0 -4851zm-34 -34l4919 0 0 4919 -4919 0 0 -4919z"/>
    <path id="109" class="fil78" d="M3851 3744l4896 0 0 4896 -4896 0 0 -4896zm-34 -34l4964 0 0 4964 -4964 0 0 -4964z"/>
    <path id="110" class="fil79" d="M3828 3721l4942 0 0 4942 -4942 0 0 -4942zm-34 -34l5010 0 0 5010 -5010 0 0 -5010z"/>
    <path id="111" class="fil80" d="M3805 3698l4987 0 0 4987 -4987 0 0 -4987zm-34 -34l5055 0 0 5055 -5055 0 0 -5055z"/>
    <path id="112" class="fil81" d="M3783 3676l5032 0 0 5032 -5032 0 0 -5032zm-34 -34l5100 0 0 5100 -5100 0 0 -5100z"/>
    <path id="113" class="fil81" d="M3760 3653l5078 0 0 5078 -5078 0 0 -5078zm-34 -34l5146 0 0 5146 -5146 0 0 -5146z"/>
    <path id="114" class="fil82" d="M3737 3630l5123 0 0 5123 -5123 0 0 -5123zm-34 -34l5191 0 0 5191 -5191 0 0 -5191z"/>
    <path id="115" class="fil83" d="M3715 3608l5168 0 0 5168 -5168 0 0 -5168zm-34 -34l5236 0 0 5236 -5236 0 0 -5236z"/>
    <path id="116" class="fil84" d="M3692 3585l5214 0 0 5214 -5214 0 0 -5214zm-34 -34l5282 0 0 5282 -5282 0 0 -5282z"/>
    <path id="117" class="fil85" d="M3669 3562l5259 0 0 5259 -5259 0 0 -5259zm-34 -34l5327 0 0 5327 -5327 0 0 -5327z"/>
    <path id="118" class="fil85" d="M3647 3540l5304 0 0 5304 -5304 0 0 -5304zm-34 -34l5372 0 0 5372 -5372 0 0 -5372z"/>
    <path id="119" class="fil86" d="M3624 3517l5350 0 0 5350 -5350 0 0 -5350zm-34 -34l5418 0 0 5418 -5418 0 0 -5418z"/>
    <path id="120" class="fil87" d="M3601 3494l5395 0 0 5395 -5395 0 0 -5395zm-34 -34l5463 0 0 5463 -5463 0 0 -5463z"/>
    <path id="121" class="fil88" d="M3579 3472l5440 0 0 5440 -5440 0 0 -5440zm-34 -34l5508 0 0 5508 -5508 0 0 -5508z"/>
    <path id="122" class="fil89" d="M3556 3449l5486 0 0 5486 -5486 0 0 -5486zm-34 -34l5554 0 0 5554 -5554 0 0 -5554z"/>
    <path id="123" class="fil89" d="M3533 3426l5531 0 0 5531 -5531 0 0 -5531zm-34 -34l5599 0 0 5599 -5599 0 0 -5599z"/>
    <path id="124" class="fil90" d="M3511 3404l5576 0 0 5576 -5576 0 0 -5576zm-34 -34l5644 0 0 5644 -5644 0 0 -5644z"/>
    <path id="125" class="fil91" d="M3488 3381l5622 0 0 5622 -5622 0 0 -5622zm-34 -34l5690 0 0 5690 -5690 0 0 -5690z"/>
    <path id="126" class="fil92" d="M3465 3358l5667 0 0 5667 -5667 0 0 -5667zm-34 -34l5735 0 0 5735 -5735 0 0 -5735z"/>
    <path id="127" class="fil93" d="M3443 3336l5712 0 0 5712 -5712 0 0 -5712zm-34 -34l5780 0 0 5780 -5780 0 0 -5780z"/>
    <path id="128" class="fil93" d="M3420 3313l5758 0 0 5758 -5758 0 0 -5758zm-34 -34l5826 0 0 5826 -5826 0 0 -5826z"/>
    <path id="129" class="fil94" d="M3397 3290l5803 0 0 5803 -5803 0 0 -5803zm-34 -34l5871 0 0 5871 -5871 0 0 -5871z"/>
    <path id="130" class="fil95" d="M3375 3268l5848 0 0 5848 -5848 0 0 -5848zm-34 -34l5916 0 0 5916 -5916 0 0 -5916z"/>
    <path id="131" class="fil96" d="M3352 3245l5894 0 0 5894 -5894 0 0 -5894zm-34 -34l5962 0 0 5962 -5962 0 0 -5962z"/>
    <path id="132" class="fil97" d="M3329 3222l5939 0 0 5939 -5939 0 0 -5939zm-34 -34l6007 0 0 6007 -6007 0 0 -6007z"/>
    <path id="133" class="fil97" d="M3307 3200l5984 0 0 5984 -5984 0 0 -5984zm-34 -34l6052 0 0 6052 -6052 0 0 -6052z"/>
    <path id="134" class="fil98" d="M3284 3177l6030 0 0 6030 -6030 0 0 -6030zm-34 -34l6098 0 0 6098 -6098 0 0 -6098z"/>
    <path id="135" class="fil99" d="M3261 3154l6075 0 0 6075 -6075 0 0 -6075zm-34 -34l6143 0 0 6143 -6143 0 0 -6143z"/>
    <path id="136" class="fil100" d="M3239 3132l6120 0 0 6120 -6120 0 0 -6120zm-34 -34l6188 0 0 6188 -6188 0 0 -6188z"/>
    <path id="137" class="fil101" d="M3216 3109l6166 0 0 6166 -6166 0 0 -6166zm-34 -34l6234 0 0 6234 -6234 0 0 -6234z"/>
    <path id="138" class="fil101" d="M3193 3086l6211 0 0 6211 -6211 0 0 -6211zm-34 -34l6279 0 0 6279 -6279 0 0 -6279z"/>
    <path id="139" class="fil102" d="M3171 3064l6256 0 0 6256 -6256 0 0 -6256zm-34 -34l6324 0 0 6324 -6324 0 0 -6324z"/>
    <path id="140" class="fil103" d="M3148 3041l6302 0 0 6302 -6302 0 0 -6302zm-34 -34l6370 0 0 6370 -6370 0 0 -6370z"/>
    <path id="141" class="fil104" d="M3125 3018l6347 0 0 6347 -6347 0 0 -6347zm-34 -34l6415 0 0 6415 -6415 0 0 -6415z"/>
    <path id="142" class="fil105" d="M3103 2996l6392 0 0 6392 -6392 0 0 -6392zm-34 -34l6460 0 0 6460 -6460 0 0 -6460z"/>
    <path id="143" class="fil106" d="M3080 2973l6438 0 0 6438 -6438 0 0 -6438zm-34 -34l6506 0 0 6506 -6506 0 0 -6506z"/>
    <path id="144" class="fil107" d="M3057 2950l6483 0 0 6484 -6483 0 0 -6484zm-34 -34l6551 0 0 6552 -6551 0 0 -6552z"/>
    <path id="145" class="fil108" d="M3035 2928l6528 0 0 6528 -6528 0 0 -6528zm-34 -34l6596 0 0 6596 -6596 0 0 -6596z"/>
    <path id="146" class="fil109" d="M3012 2905l6574 0 0 6574 -6574 0 0 -6574zm-34 -34l6642 0 0 6642 -6642 0 0 -6642z"/>
    <path id="147" class="fil110" d="M2989 2882l6619 0 0 6620 -6619 0 0 -6620zm-34 -34l6687 0 0 6688 -6687 0 0 -6688z"/>
    <path id="148" class="fil111" d="M2967 2860l6664 0 0 6664 -6664 0 0 -6664zm-34 -34l6732 0 0 6732 -6732 0 0 -6732z"/>
    <path id="149" class="fil112" d="M2944 2837l6710 0 0 6710 -6710 0 0 -6710zm-34 -34l6778 0 0 6778 -6778 0 0 -6778z"/>
    <path id="150" class="fil113" d="M2921 2814l6755 0 0 6756 -6755 0 0 -6756zm-34 -34l6823 0 0 6824 -6823 0 0 -6824z"/>
    <path id="151" class="fil114" d="M2898 2792l6801 0 0 6800 -6801 0 0 -6800zm-34 -34l6869 0 0 6868 -6869 0 0 -6868z"/>
    <path id="152" class="fil115" d="M2876 2769l6846 0 0 6846 -6846 0 0 -6846zm-34 -34l6914 0 0 6914 -6914 0 0 -6914z"/>
    <path id="153" class="fil116" d="M2853 2746l6891 0 0 6892 -6891 0 0 -6892zm-34 -34l6959 0 0 6960 -6959 0 0 -6960z"/>
    <path id="154" class="fil117" d="M2830 2724l6937 0 0 6936 -6937 0 0 -6936zm-34 -34l7005 0 0 7004 -7005 0 0 -7004z"/>
    <path id="155" class="fil118" d="M2808 2701l6982 0 0 6982 -6982 0 0 -6982zm-34 -34l7050 0 0 7050 -7050 0 0 -7050z"/>
    <path id="156" class="fil119" d="M2785 2678l7027 0 0 7028 -7027 0 0 -7028zm-34 -34l7095 0 0 7096 -7095 0 0 -7096z"/>
    <path id="157" class="fil120" d="M2762 2656l7073 0 0 7072 -7073 0 0 -7072zm-34 -34l7141 0 0 7140 -7141 0 0 -7140z"/>
    <path id="158" class="fil121" d="M2740 2633l7118 0 0 7118 -7118 0 0 -7118zm-34 -34l7186 0 0 7186 -7186 0 0 -7186z"/>
    <path id="159" class="fil122" d="M2717 2610l7163 0 0 7164 -7163 0 0 -7164zm-34 -34l7231 0 0 7232 -7231 0 0 -7232z"/>
    <path id="160" class="fil123" d="M2694 2588l7209 0 0 7208 -7209 0 0 -7208zm-34 -34l7277 0 0 7276 -7277 0 0 -7276z"/>
    <path id="161" class="fil124" d="M2672 2565l7254 0 0 7254 -7254 0 0 -7254zm-34 -34l7322 0 0 7322 -7322 0 0 -7322z"/>
    <path id="162" class="fil125" d="M2649 2542l7299 0 0 7300 -7299 0 0 -7300zm-34 -34l7367 0 0 7368 -7367 0 0 -7368z"/>
    <path id="163" class="fil126" d="M2626 2520l7345 0 0 7344 -7345 0 0 -7344zm-34 -34l7413 0 0 7412 -7413 0 0 -7412z"/>
    <path id="164" class="fil127" d="M2604 2497l7390 0 0 7390 -7390 0 0 -7390zm-34 -34l7458 0 0 7458 -7458 0 0 -7458z"/>
    <path id="165" class="fil128" d="M2581 2474l7435 0 0 7436 -7435 0 0 -7436zm-34 -34l7503 0 0 7504 -7503 0 0 -7504z"/>
    <path id="166" class="fil129" d="M2558 2452l7481 0 0 7480 -7481 0 0 -7480zm-34 -34l7549 0 0 7548 -7549 0 0 -7548z"/>
    <path id="167" class="fil130" d="M2536 2429l7526 0 0 7526 -7526 0 0 -7526zm-34 -34l7594 0 0 7594 -7594 0 0 -7594z"/>
    <path id="168" class="fil131" d="M2513 2406l7571 0 0 7572 -7571 0 0 -7572zm-34 -34l7639 0 0 7640 -7639 0 0 -7640z"/>
    <path id="169" class="fil132" d="M2490 2384l7617 0 0 7616 -7617 0 0 -7616zm-34 -34l7685 0 0 7684 -7685 0 0 -7684z"/>
    <path id="170" class="fil133" d="M2468 2361l7662 0 0 7662 -7662 0 0 -7662zm-34 -34l7730 0 0 7730 -7730 0 0 -7730z"/>
    <path id="171" class="fil134" d="M2445 2338l7707 0 0 7708 -7707 0 0 -7708zm-34 -34l7775 0 0 7776 -7775 0 0 -7776z"/>
    <path id="172" class="fil135" d="M2422 2316l7753 0 0 7752 -7753 0 0 -7752zm-34 -34l7821 0 0 7820 -7821 0 0 -7820z"/>
    <path id="173" class="fil136" d="M2400 2293l7798 0 0 7798 -7798 0 0 -7798zm-34 -34l7866 0 0 7866 -7866 0 0 -7866z"/>
    <path id="174" class="fil137" d="M2377 2270l7843 0 0 7844 -7843 0 0 -7844zm-34 -34l7911 0 0 7912 -7911 0 0 -7912z"/>
    <path id="175" class="fil138" d="M2354 2248l7889 0 0 7888 -7889 0 0 -7888zm-34 -34l7957 0 0 7956 -7957 0 0 -7956z"/>
    <path id="176" class="fil139" d="M2332 2225l7934 0 0 7934 -7934 0 0 -7934zm-34 -34l8002 0 0 8002 -8002 0 0 -8002z"/>
    <path id="177" class="fil140" d="M2309 2202l7979 0 0 7980 -7979 0 0 -7980zm-34 -34l8048 0 0 8048 -8048 0 0 -8048z"/>
    <path id="178" class="fil141" d="M2286 2180l8025 0 0 8024 -8025 0 0 -8024zm-34 -34l8093 0 0 8092 -8093 0 0 -8092z"/>
    <path id="179" class="fil142" d="M2264 2157l8070 0 0 8070 -8070 0 0 -8070zm-34 -34l8138 0 0 8138 -8138 0 0 -8138z"/>
    <path id="180" class="fil143" d="M2241 2134l8116 0 0 8116 -8116 0 0 -8116zm-34 -34l8184 0 0 8184 -8184 0 0 -8184z"/>
    <path id="181" class="fil144" d="M2218 2112l8161 0 0 8160 -8161 0 0 -8160zm-34 -34l8229 0 0 8228 -8229 0 0 -8228z"/>
    <path id="182" class="fil145" d="M2196 2089l8206 0 0 8206 -8206 0 0 -8206zm-34 -34l8274 0 0 8274 -8274 0 0 -8274z"/>
    <path id="183" class="fil146" d="M2173 2066l8252 0 0 8252 -8252 0 0 -8252zm-34 -34l8320 0 0 8320 -8320 0 0 -8320z"/>
    <path id="184" class="fil147" d="M2150 2044l8297 0 0 8296 -8297 0 0 -8296zm-34 -35l8365 0 0 8365 -8365 0 0 -8365z"/>
    <path id="185" class="fil148" d="M2128 2021l8342 0 0 8342 -8342 0 0 -8342zm-34 -34l8410 0 0 8410 -8410 0 0 -8410z"/>
    <path id="186" class="fil149" d="M2105 1998l8388 0 0 8388 -8388 0 0 -8388zm-34 -34l8456 0 0 8456 -8456 0 0 -8456z"/>
    <path id="187" class="fil150" d="M2082 1975l8433 0 0 8433 -8433 0 0 -8433zm-34 -34l8501 0 0 8501 -8501 0 0 -8501z"/>
    <path id="188" class="fil151" d="M2060 1953l8478 0 0 8478 -8478 0 0 -8478zm-34 -34l8546 0 0 8546 -8546 0 0 -8546z"/>
    <path id="189" class="fil152" d="M2037 1930l8524 0 0 8524 -8524 0 0 -8524zm-34 -34l8592 0 0 8592 -8592 0 0 -8592z"/>
    <path id="190" class="fil153" d="M2014 1907l8569 0 0 8569 -8569 0 0 -8569zm-34 -34l8637 0 0 8637 -8637 0 0 -8637z"/>
    <path id="191" class="fil154" d="M1992 1885l8614 0 0 8614 -8614 0 0 -8614zm-34 -34l8682 0 0 8682 -8682 0 0 -8682z"/>
    <path id="192" class="fil155" d="M1969 1862l8660 0 0 8660 -8660 0 0 -8660zm-34 -34l8728 0 0 8728 -8728 0 0 -8728z"/>
    <path id="193" class="fil156" d="M1946 1839l8705 0 0 8705 -8705 0 0 -8705zm-34 -34l8773 0 0 8773 -8773 0 0 -8773z"/>
    <path id="194" class="fil157" d="M1924 1817l8750 0 0 8750 -8750 0 0 -8750zm-34 -34l8818 0 0 8818 -8818 0 0 -8818z"/>
    <path id="195" class="fil158" d="M1901 1794l8796 0 0 8796 -8796 0 0 -8796zm-34 -34l8864 0 0 8864 -8864 0 0 -8864z"/>
    <path id="196" class="fil159" d="M1878 1771l8841 0 0 8841 -8841 0 0 -8841zm-34 -34l8909 0 0 8909 -8909 0 0 -8909z"/>
    <path id="197" class="fil160" d="M1856 1749l8886 0 0 8886 -8886 0 0 -8886zm-34 -34l8954 0 0 8954 -8954 0 0 -8954z"/>
    <path id="198" class="fil161" d="M1833 1726l8932 0 0 8932 -8932 0 0 -8932zm-34 -34l9000 0 0 9000 -9000 0 0 -9000z"/>
    <path id="199" class="fil162" d="M1810 1703l8977 0 0 8977 -8977 0 0 -8977zm-34 -34l9045 0 0 9045 -9045 0 0 -9045z"/>
    <path id="200" class="fil163" d="M1788 1681l9022 0 0 9022 -9022 0 0 -9022zm-34 -34l9090 0 0 9090 -9090 0 0 -9090z"/>
    <path id="201" class="fil164" d="M1765 1658l9068 0 0 9068 -9068 0 0 -9068zm-34 -34l9136 0 0 9136 -9136 0 0 -9136z"/>
    <path id="202" class="fil165" d="M1742 1635l9113 0 0 9113 -9113 0 0 -9113zm-34 -34l9181 0 0 9181 -9181 0 0 -9181z"/>
    <path id="203" class="fil166" d="M1720 1613l9158 0 0 9158 -9158 0 0 -9158zm-34 -34l9226 0 0 9226 -9226 0 0 -9226z"/>
    <path id="204" class="fil167" d="M1697 1590l9204 0 0 9204 -9204 0 0 -9204zm-34 -34l9272 0 0 9272 -9272 0 0 -9272z"/>
    <path id="205" class="fil168" d="M1674 1567l9249 0 0 9249 -9249 0 0 -9249zm-34 -34l9317 0 0 9317 -9317 0 0 -9317z"/>
    <path id="206" class="fil169" d="M1652 1545l9294 0 0 9294 -9294 0 0 -9294zm-34 -34l9362 0 0 9362 -9362 0 0 -9362z"/>
    <path id="207" class="fil170" d="M1629 1522l9340 0 0 9340 -9340 0 0 -9340zm-34 -34l9408 0 0 9408 -9408 0 0 -9408z"/>
    <path id="208" class="fil171" d="M1606 1499l9385 0 0 9385 -9385 0 0 -9385zm-34 -34l9453 0 0 9453 -9453 0 0 -9453z"/>
    <path id="209" class="fil172" d="M1584 1477l9430 0 0 9430 -9430 0 0 -9430zm-34 -34l9498 0 0 9498 -9498 0 0 -9498z"/>
    <path id="210" class="fil173" d="M1561 1454l9476 0 0 9476 -9476 0 0 -9476zm-34 -34l9544 0 0 9544 -9544 0 0 -9544z"/>
    <path id="211" class="fil174" d="M1538 1431l9521 0 0 9521 -9521 0 0 -9521zm-34 -34l9589 0 0 9589 -9589 0 0 -9589z"/>
    <path id="212" class="fil175" d="M1516 1409l9566 0 0 9566 -9566 0 0 -9566zm-34 -34l9634 0 0 9634 -9634 0 0 -9634z"/>
    <path id="213" class="fil176" d="M1493 1386l9612 0 0 9612 -9612 0 0 -9612zm-34 -34l9680 0 0 9680 -9680 0 0 -9680z"/>
    <path id="214" class="fil177" d="M1470 1363l9657 0 0 9657 -9657 0 0 -9657zm-34 -34l9725 0 0 9725 -9725 0 0 -9725z"/>
    <path id="215" class="fil178" d="M1448 1341l9702 0 0 9702 -9702 0 0 -9702zm-34 -34l9770 0 0 9770 -9770 0 0 -9770z"/>
    <path id="216" class="fil179" d="M1425 1318l9748 0 0 9748 -9748 0 0 -9748zm-34 -34l9816 0 0 9816 -9816 0 0 -9816z"/>
    <path id="217" class="fil180" d="M1402 1295l9793 0 0 9793 -9793 0 0 -9793zm-34 -34l9861 0 0 9861 -9861 0 0 -9861z"/>
    <path id="218" class="fil181" d="M1380 1273l9838 0 0 9838 -9838 0 0 -9838zm-34 -34l9906 0 0 9906 -9906 0 0 -9906z"/>
    <path id="219" class="fil182" d="M1357 1250l9884 0 0 9884 -9884 0 0 -9884zm-34 -34l9952 0 0 9952 -9952 0 0 -9952z"/>
    <path id="220" class="fil183" d="M1334 1227l9929 0 0 9929 -9929 0 0 -9929zm-34 -34l9997 0 0 9997 -9997 0 0 -9997z"/>
    <path id="221" class="fil184" d="M1312 1205l9974 0 0 9974 -9974 0 0 -9974zm-34 -34l10042 0 0 10042 -10042 0 0 -10042z"/>
    <path id="222" class="fil185" d="M1289 1182l10020 0 0 10020 -10020 0 0 -10020zm-34 -34l10088 0 0 10088 -10088 0 0 -10088z"/>
    <path id="223" class="fil186" d="M1266 1159l10065 0 0 10065 -10065 0 0 -10065zm-34 -34l10133 0 0 10133 -10133 0 0 -10133z"/>
    <path id="224" class="fil187" d="M1244 1137l10110 0 0 10110 -10110 0 0 -10110zm-34 -34l10178 0 0 10178 -10178 0 0 -10178z"/>
    <path id="225" class="fil188" d="M1221 1114l10156 0 0 10156 -10156 0 0 -10156zm-34 -34l10224 0 0 10224 -10224 0 0 -10224z"/>
    <path id="226" class="fil189" d="M1198 1091l10201 0 0 10201 -10201 0 0 -10201zm-34 -34l10269 0 0 10269 -10269 0 0 -10269z"/>
    <path id="227" class="fil190" d="M1176 1069l10246 0 0 10246 -10246 0 0 -10246zm-34 -34l10314 0 0 10314 -10314 0 0 -10314z"/>
    <path id="228" class="fil191" d="M1153 1046l10292 0 0 10292 -10292 0 0 -10292zm-34 -34l10360 0 0 10360 -10360 0 0 -10360z"/>
    <path id="229" class="fil192" d="M1130 1023l10337 0 0 10337 -10337 0 0 -10337zm-34 -34l10405 0 0 10405 -10405 0 0 -10405z"/>
    <path id="230" class="fil193" d="M1108 1001l10382 0 0 10382 -10382 0 0 -10382zm-34 -34l10450 0 0 10450 -10450 0 0 -10450z"/>
    <path id="231" class="fil194" d="M1085 978l10428 0 0 10428 -10428 0 0 -10428zm-34 -34l10496 0 0 10496 -10496 0 0 -10496z"/>
    <path id="232" class="fil195" d="M1062 955l10473 0 0 10473 -10473 0 0 -10473zm-34 -34l10541 0 0 10541 -10541 0 0 -10541z"/>
    <path id="233" class="fil196" d="M1040 933l10518 0 0 10518 -10518 0 0 -10518zm-34 -34l10586 0 0 10586 -10586 0 0 -10586z"/>
    <path id="234" class="fil197" d="M1017 910l10564 0 0 10564 -10564 0 0 -10564zm-34 -34l10632 0 0 10632 -10632 0 0 -10632z"/>
    <path id="235" class="fil198" d="M994 887l10609 0 0 10609 -10609 0 0 -10609zm-34 -34l10677 0 0 10677 -10677 0 0 -10677z"/>
    <path id="236" class="fil199" d="M972 865l10654 0 0 10654 -10654 0 0 -10654zm-34 -34l10722 0 0 10722 -10722 0 0 -10722z"/>
    <path id="237" class="fil200" d="M949 842l10700 0 0 10700 -10700 0 0 -10700zm-34 -34l10768 0 0 10768 -10768 0 0 -10768z"/>
    <path id="238" class="fil201" d="M926 819l10745 0 0 10745 -10745 0 0 -10745zm-34 -34l10813 0 0 10813 -10813 0 0 -10813z"/>
    <path id="239" class="fil202" d="M904 797l10790 0 0 10790 -10790 0 0 -10790zm-34 -34l10858 0 0 10858 -10858 0 0 -10858z"/>
    <path id="240" class="fil203" d="M881 774l10836 0 0 10836 -10836 0 0 -10836zm-34 -34l10904 0 0 10904 -10904 0 0 -10904z"/>
    <path id="241" class="fil204" d="M858 751l10881 0 0 10881 -10881 0 0 -10881zm-34 -34l10949 0 0 10949 -10949 0 0 -10949z"/>
    <path id="242" class="fil205" d="M836 729l10926 0 0 10926 -10926 0 0 -10926zm-34 -34l10994 0 0 10994 -10994 0 0 -10994z"/>
    <path id="243" class="fil206" d="M813 706l10972 0 0 10972 -10972 0 0 -10972zm-34 -34l11040 0 0 11040 -11040 0 0 -11040z"/>
    <path id="244" class="fil207" d="M790 683l11017 0 0 11017 -11017 0 0 -11017zm-34 -34l11085 0 0 11085 -11085 0 0 -11085z"/>
    <path id="245" class="fil208" d="M768 661l11062 0 0 11062 -11062 0 0 -11062zm-34 -34l11130 0 0 11130 -11130 0 0 -11130z"/>
    <path id="246" class="fil209" d="M745 638l11108 0 0 11108 -11108 0 0 -11108zm-34 -34l11176 0 0 11176 -11176 0 0 -11176z"/>
    <path id="247" class="fil210" d="M722 615l11153 0 0 11153 -11153 0 0 -11153zm-34 -34l11221 0 0 11221 -11221 0 0 -11221z"/>
    <path id="248" class="fil211" d="M700 593l11198 0 0 11198 -11198 0 0 -11198zm-34 -34l11266 0 0 11266 -11266 0 0 -11266z"/>
    <path id="249" class="fil212" d="M677 570l11244 0 0 11244 -11244 0 0 -11244zm-34 -34l11312 0 0 11312 -11312 0 0 -11312z"/>
    <path id="250" class="fil213" d="M654 547l11289 0 0 11289 -11289 0 0 -11289zm-34 -34l11357 0 0 11357 -11357 0 0 -11357z"/>
    <path id="251" class="fil214" d="M632 525l11334 0 0 11334 -11334 0 0 -11334zm-34 -34l11402 0 0 11402 -11402 0 0 -11402z"/>
    <path id="252" class="fil215" d="M609 502l11380 0 0 11380 -11380 0 0 -11380zm-34 -34l11448 0 0 11448 -11448 0 0 -11448z"/>
    <path id="253" class="fil216" d="M586 479l11425 0 0 11425 -11425 0 0 -11425zm-34 -34l11493 0 0 11493 -11493 0 0 -11493z"/>
    <path id="254" class="fil217" d="M564 457l11470 0 0 11470 -11470 0 0 -11470zm-34 -34l11538 0 0 11538 -11538 0 0 -11538z"/>
    <path id="255" class="fil218" d="M541 434l11516 0 0 11516 -11516 0 0 -11516zm-34 -34l11584 0 0 11584 -11584 0 0 -11584z"/>
    <path id="256" class="fil0" d="M518 411l11561 0 0 11561 -11561 0 0 -11561zm-22 -22l11606 0 0 11606 -11606 0 0 -11606z"/>
   </g>
  </g>
  <g style="clip-path:url(#id1)">
   <g>
    <path id="257" class="fil219 str0" d="M6275 665l20 5566 3949 -3921 -3921 3950 5566 19 -5566 20 5571 -22 -5599 50 -20 5566 -20 -5566 -5589 -48 5561 20 -5566 -20 5566 -19 -3922 -3950 3950 3921 20 -5566zm-1 -7c3104,0 5620,2516 5620,5619 0,3104 -2516,5620 -5620,5620 -3104,0 -5620,-2516 -5620,-5620 0,-3103 2516,-5619 5620,-5619z"/>
   </g>
  </g>
  <path class="fil220 str1" d="M6299 389c3205,0 5803,2598 5803,5803 0,3205 -2598,5803 -5803,5803 -3205,0 -5803,-2598 -5803,-5803 0,-3205 2598,-5803 5803,-5803z"/>
  <path class="fil221" d="M2795 2946c1,1 -78,81 -85,90 -496,585 -433,571 -818,1341 -255,509 -440,1377 -451,1749l-1 52 -705 2c-1,0 0,-8 0,-13 22,-1650 784,-2992 1498,-3685l49 -48 442 441 71 71z"/>
  <polygon class="fil222" points="1005,7129 1005,6480 1485,6480 1485,6590 1136,6590 1136,6734 1461,6734 1461,6844 1136,6844 1136,7020 1498,7020 1498,7129 "/>
  <polygon class="fil222" points="11059,7143 11059,6494 11505,6494 11505,6604 11190,6604 11190,6758 11462,6758 11462,6868 11190,6868 11190,7143 "/>
  <g>
   <path class="fil219" d="M6231 1391c2647,0 4793,2146 4793,4793 0,2647 -2146,4793 -4793,4793 -2647,0 -4793,-2146 -4793,-4793 0,-2647 2146,-4793 4793,-4793z"/>
   <path class="fil219" d="M6147 10886l205 0c82,0 148,67 148,148l0 613c0,81 -66,148 -148,148l-205 0c-82,0 -149,-67 -149,-148l0 -613c0,-81 67,-148 149,-148z"/>
  </g>
 </g>
</svg>
