<?xml version="1.0" encoding="UTF-8"?>
<!DOCTYPE svg PUBLIC "-//W3C//DTD SVG 1.1//EN" "http://www.w3.org/Graphics/SVG/1.1/DTD/svg11.dtd">
<!-- Creator: CorelDRAW X7 -->
<svg xmlns="http://www.w3.org/2000/svg" xml:space="preserve" width="123mm" height="123mm" version="1.1" style="shape-rendering:geometricPrecision; text-rendering:geometricPrecision; image-rendering:optimizeQuality; fill-rule:evenodd; clip-rule:evenodd"
viewBox="0 0 12300 12300"
 xmlns:xlink="http://www.w3.org/1999/xlink">
 <defs>
  <style type="text/css">
   <![CDATA[
    .str0 {stroke:red;stroke-width:20}
    .str1 {stroke:white;stroke-width:20}
    .fil0 {fill:none}
    .fil2 {fill:#008FD7}
    .fil3 {fill:#332C2B}
    .fil1 {fill:#E62129}
   ]]>
  </style>
 </defs>
 <g id="Layer_x0020_1">
  <metadata id="CorelCorpID_0Corel-Layer"/>
  <rect class="fil0" x="442" y="282" width="11671" height="11671"/>
  <g id="_2687265781648">
   <polygon class="fil1 str0" points="2527,9943 6477,6351 6028,5914 "/>
   <path class="fil2 str1" d="M6278 5630c269,0 487,219 487,488 0,269 -218,488 -487,488 -270,0 -488,-219 -488,-488 0,-269 218,-488 488,-488z"/>
   <path class="fil3" d="M6278 5713c223,0 404,182 404,405 0,223 -181,404 -404,404 -224,0 -405,-181 -405,-404 0,-223 181,-405 405,-405z"/>
   <polygon class="fil1 str0" points="2527,9943 6477,6351 6028,5914 "/>
   <path class="fil2 str1" d="M6278 5630c269,0 487,219 487,488 0,269 -218,488 -487,488 -270,0 -488,-219 -488,-488 0,-269 218,-488 488,-488z"/>
   <path class="fil3" d="M6278 5713c223,0 404,182 404,405 0,223 -181,404 -404,404 -224,0 -405,-181 -405,-404 0,-223 181,-405 405,-405z"/>
   <polygon class="fil1 str0" points="2527,9943 6477,6351 6028,5914 "/>
   <path class="fil2 str1" d="M6278 5630c269,0 487,219 487,488 0,269 -218,488 -487,488 -270,0 -488,-219 -488,-488 0,-269 218,-488 488,-488z"/>
   <path class="fil3" d="M6278 5713c223,0 404,182 404,405 0,223 -181,404 -404,404 -224,0 -405,-181 -405,-404 0,-223 181,-405 405,-405z"/>
   <polygon class="fil1 str0" points="2527,9943 6477,6351 6028,5914 "/>
   <path class="fil2 str1" d="M6278 5630c269,0 487,219 487,488 0,269 -218,488 -487,488 -270,0 -488,-219 -488,-488 0,-269 218,-488 488,-488z"/>
   <path class="fil3" d="M6278 5713c223,0 404,182 404,405 0,223 -181,404 -404,404 -224,0 -405,-181 -405,-404 0,-223 181,-405 405,-405z"/>
  </g>
 </g>
</svg>
