<?xml version="1.0" encoding="UTF-8"?>
<!DOCTYPE svg PUBLIC "-//W3C//DTD SVG 1.1//EN" "http://www.w3.org/Graphics/SVG/1.1/DTD/svg11.dtd">
<!-- Creator: CorelDRAW X7 -->
<svg xmlns="http://www.w3.org/2000/svg" xml:space="preserve" width="123mm" height="123mm" version="1.1" style="shape-rendering:geometricPrecision; text-rendering:geometricPrecision; image-rendering:optimizeQuality; fill-rule:evenodd; clip-rule:evenodd"
viewBox="0 0 12300 12300"
 xmlns:xlink="http://www.w3.org/1999/xlink">
 <defs>
  <style type="text/css">
   <![CDATA[
    .str2 {stroke:white;stroke-width:200}
    .str0 {stroke:#1A1A1A;stroke-width:50}
    .str1 {stroke:white;stroke-width:20}
    .str3 {stroke:black;stroke-width:7.62}
    .fil219 {fill:none}
    .fil1 {fill:#252424}
    .fil2 {fill:#262525}
    .fil3 {fill:#272626}
    .fil4 {fill:#282727}
    .fil5 {fill:#292828}
    .fil6 {fill:#2A2929}
    .fil7 {fill:#2B2A2A}
    .fil8 {fill:#2C2B2B}
    .fil9 {fill:#2D2C2C}
    .fil10 {fill:#2E2D2D}
    .fil11 {fill:#2F2E2E}
    .fil12 {fill:#302F2F}
    .fil13 {fill:#313030}
    .fil14 {fill:#323131}
    .fil222 {fill:#332C2B}
    .fil15 {fill:#333232}
    .fil16 {fill:#343333}
    .fil17 {fill:#353434}
    .fil18 {fill:#363535}
    .fil19 {fill:#373636}
    .fil20 {fill:#383737}
    .fil21 {fill:#393838}
    .fil22 {fill:#3A3939}
    .fil23 {fill:#3B3A3A}
    .fil24 {fill:#3C3B3B}
    .fil25 {fill:#3D3C3C}
    .fil26 {fill:#3E3D3D}
    .fil27 {fill:#3F3E3E}
    .fil28 {fill:#403F3F}
    .fil29 {fill:#414040}
    .fil30 {fill:#424141}
    .fil31 {fill:#424242}
    .fil32 {fill:#434242}
    .fil33 {fill:#444343}
    .fil34 {fill:#454444}
    .fil35 {fill:#454545}
    .fil36 {fill:#464545}
    .fil220 {fill:#474443}
    .fil37 {fill:#474646}
    .fil38 {fill:#484747}
    .fil39 {fill:#484848}
    .fil40 {fill:#494848}
    .fil41 {fill:#4A4949}
    .fil42 {fill:#4B4A4A}
    .fil43 {fill:#4B4B4B}
    .fil44 {fill:#4C4B4B}
    .fil45 {fill:#4D4C4C}
    .fil46 {fill:#4E4D4D}
    .fil47 {fill:#4E4E4E}
    .fil48 {fill:#4F4E4E}
    .fil49 {fill:#504F4F}
    .fil50 {fill:#515050}
    .fil51 {fill:#515151}
    .fil52 {fill:#525151}
    .fil53 {fill:#535252}
    .fil54 {fill:#545353}
    .fil55 {fill:#545454}
    .fil56 {fill:#555454}
    .fil57 {fill:#565555}
    .fil58 {fill:#575656}
    .fil59 {fill:#575757}
    .fil60 {fill:#585757}
    .fil61 {fill:#595858}
    .fil62 {fill:#5A5959}
    .fil63 {fill:#5A5A5A}
    .fil64 {fill:#5B5A5A}
    .fil65 {fill:#5C5B5B}
    .fil66 {fill:#5D5C5C}
    .fil67 {fill:#5D5D5D}
    .fil68 {fill:#5E5D5D}
    .fil69 {fill:#5F5E5E}
    .fil70 {fill:#605F5F}
    .fil71 {fill:#606060}
    .fil72 {fill:#616060}
    .fil73 {fill:#626161}
    .fil74 {fill:#636262}
    .fil75 {fill:#636363}
    .fil76 {fill:#646363}
    .fil77 {fill:#656464}
    .fil78 {fill:#666565}
    .fil79 {fill:#666666}
    .fil80 {fill:#676666}
    .fil81 {fill:#686767}
    .fil82 {fill:#696868}
    .fil83 {fill:dimgray}
    .fil84 {fill:#6A6969}
    .fil85 {fill:#6B6A6A}
    .fil86 {fill:#6C6B6B}
    .fil87 {fill:#6C6C6C}
    .fil88 {fill:#6D6C6C}
    .fil89 {fill:#6E6D6D}
    .fil90 {fill:#6F6E6E}
    .fil91 {fill:#6F6F6F}
    .fil92 {fill:#706F6F}
    .fil93 {fill:#717070}
    .fil94 {fill:#727171}
    .fil95 {fill:#727272}
    .fil96 {fill:#737272}
    .fil97 {fill:#747373}
    .fil98 {fill:#757474}
    .fil99 {fill:#757575}
    .fil100 {fill:#767575}
    .fil101 {fill:#777676}
    .fil102 {fill:#787777}
    .fil103 {fill:#787878}
    .fil104 {fill:#797878}
    .fil105 {fill:#797979}
    .fil106 {fill:#7A7979}
    .fil107 {fill:#7B7A7A}
    .fil108 {fill:#7B7B7B}
    .fil109 {fill:#7C7B7B}
    .fil110 {fill:#7C7C7C}
    .fil111 {fill:#7D7D7D}
    .fil112 {fill:#7E7D7D}
    .fil113 {fill:#7E7E7E}
    .fil114 {fill:#7F7E7E}
    .fil115 {fill:#7F7F7F}
    .fil116 {fill:gray}
    .fil117 {fill:#818080}
    .fil118 {fill:#818181}
    .fil119 {fill:#828181}
    .fil120 {fill:#828282}
    .fil121 {fill:#838383}
    .fil122 {fill:#848383}
    .fil123 {fill:#848484}
    .fil124 {fill:#858484}
    .fil125 {fill:#858585}
    .fil126 {fill:#868686}
    .fil127 {fill:#878686}
    .fil128 {fill:#878787}
    .fil129 {fill:#888787}
    .fil130 {fill:#888888}
    .fil131 {fill:#898989}
    .fil132 {fill:#8A8989}
    .fil133 {fill:#8A8A8A}
    .fil134 {fill:#8B8A8A}
    .fil135 {fill:#8B8B8B}
    .fil136 {fill:#8C8C8C}
    .fil137 {fill:#8D8C8C}
    .fil138 {fill:#8D8D8D}
    .fil139 {fill:#8E8D8D}
    .fil140 {fill:#8E8E8E}
    .fil141 {fill:#8F8F8F}
    .fil142 {fill:#908F8F}
    .fil143 {fill:#909090}
    .fil144 {fill:#919090}
    .fil145 {fill:#919191}
    .fil146 {fill:#939292}
    .fil147 {fill:#949494}
    .fil148 {fill:#969595}
    .fil149 {fill:#979797}
    .fil150 {fill:#999898}
    .fil151 {fill:#9A9A9A}
    .fil152 {fill:#9C9B9B}
    .fil153 {fill:#9D9D9D}
    .fil154 {fill:#9F9E9E}
    .fil155 {fill:#A0A0A0}
    .fil156 {fill:#A2A1A1}
    .fil157 {fill:#A3A3A3}
    .fil158 {fill:#A5A4A4}
    .fil159 {fill:#A6A6A6}
    .fil160 {fill:#A7A7A7}
    .fil161 {fill:darkgray}
    .fil162 {fill:#AAAAAA}
    .fil163 {fill:#ACABAB}
    .fil164 {fill:#ADADAD}
    .fil165 {fill:#AFAEAE}
    .fil166 {fill:#B0B0B0}
    .fil167 {fill:#B2B1B1}
    .fil168 {fill:#B3B3B3}
    .fil169 {fill:#B5B4B4}
    .fil170 {fill:#B6B6B6}
    .fil171 {fill:#B8B7B7}
    .fil172 {fill:#B9B9B9}
    .fil173 {fill:#BBBABA}
    .fil174 {fill:#BCBCBC}
    .fil175 {fill:#BDBDBD}
    .fil176 {fill:#BFBFBF}
    .fil177 {fill:silver}
    .fil178 {fill:#C2C2C2}
    .fil179 {fill:#C3C3C3}
    .fil180 {fill:#C5C5C5}
    .fil181 {fill:#C6C6C6}
    .fil182 {fill:#C8C7C7}
    .fil183 {fill:#C9C9C9}
    .fil184 {fill:#CBCACA}
    .fil185 {fill:#CCCCCC}
    .fil186 {fill:#CECDCD}
    .fil187 {fill:#CFCFCF}
    .fil188 {fill:#D1D0D0}
    .fil189 {fill:#D2D2D2}
    .fil190 {fill:lightgrey}
    .fil191 {fill:#D5D5D5}
    .fil192 {fill:#D6D6D6}
    .fil193 {fill:#D8D8D8}
    .fil194 {fill:#D9D9D9}
    .fil195 {fill:#DBDBDB}
    .fil196 {fill:gainsboro}
    .fil197 {fill:#DEDEDE}
    .fil198 {fill:#DFDFDF}
    .fil199 {fill:#E1E1E1}
    .fil200 {fill:#E2E2E2}
    .fil201 {fill:#E4E3E3}
    .fil202 {fill:#E5E5E5}
    .fil203 {fill:#E7E6E6}
    .fil204 {fill:#E8E8E8}
    .fil205 {fill:#E9E9E9}
    .fil206 {fill:#EBEBEB}
    .fil207 {fill:#ECECEC}
    .fil208 {fill:#EEEEEE}
    .fil209 {fill:#EFEFEF}
    .fil210 {fill:#F1F1F1}
    .fil211 {fill:#F2F2F2}
    .fil212 {fill:#F4F4F4}
    .fil213 {fill:whitesmoke}
    .fil214 {fill:#F7F7F7}
    .fil215 {fill:#F8F8F8}
    .fil216 {fill:#FAFAFA}
    .fil217 {fill:#FBFBFB}
    .fil218 {fill:#FDFDFD}
    .fil0 {fill:#FEFEFE}
    .fil221 {fill:#FEFEFE;fill-rule:nonzero}
   ]]>
  </style>
     <clipPath id="id0">
      <path d="M6288 334c3223,0 5836,2612 5836,5835 0,3223 -2613,5836 -5836,5836 -3223,0 -5835,-2613 -5835,-5836 0,-3223 2612,-5835 5835,-5835z"/>
     </clipPath>
 </defs>
 <g id="Layer_x0020_1">
  <metadata id="CorelCorpID_0Corel-Layer"/>
  <g id="_2687176900064">
   <g>
    <g style="clip-path:url(#id0)">
     <g>
      <polygon class="fil0" points="453,334 12124,334 12124,12005 453,12005 "/>
     </g>
     <polygon id="1" class="fil1" points="6254,6135 6322,6135 6322,6203 6254,6203 "/>
     <path id="2" class="fil2" d="M6265 6146l46 0 0 46 -46 0 0 -46zm-34 -34l114 0 0 114 -114 0 0 -114z"/>
     <path id="3" class="fil2" d="M6243 6124l91 0 0 91 -91 0 0 -91zm-35 -35l160 0 0 160 -160 0 0 -160z"/>
     <path id="4" class="fil3" d="M6220 6101l137 0 0 137 -137 0 0 -137zm-34 -34l205 0 0 205 -205 0 0 -205z"/>
     <path id="5" class="fil3" d="M6197 6078l182 0 0 182 -182 0 0 -182zm-34 -34l251 0 0 251 -251 0 0 -251z"/>
     <path id="6" class="fil4" d="M6174 6055l228 0 0 228 -228 0 0 -228zm-34 -34l296 0 0 296 -296 0 0 -296z"/>
     <path id="7" class="fil5" d="M6151 6032l274 0 0 274 -274 0 0 -274zm-34 -34l342 0 0 342 -342 0 0 -342z"/>
     <path id="8" class="fil5" d="M6129 6010l319 0 0 319 -319 0 0 -319zm-35 -35l388 0 0 388 -388 0 0 -388z"/>
     <path id="9" class="fil6" d="M6106 5987l365 0 0 365 -365 0 0 -365zm-34 -34l433 0 0 433 -433 0 0 -433z"/>
     <path id="10" class="fil6" d="M6083 5964l410 0 0 410 -410 0 0 -410zm-34 -34l479 0 0 479 -479 0 0 -479z"/>
     <path id="11" class="fil7" d="M6060 5941l456 0 0 456 -456 0 0 -456zm-34 -34l524 0 0 524 -524 0 0 -524z"/>
     <path id="12" class="fil8" d="M6037 5918l502 0 0 502 -502 0 0 -502zm-34 -34l570 0 0 570 -570 0 0 -570z"/>
     <path id="13" class="fil8" d="M6015 5896l547 0 0 547 -547 0 0 -547zm-35 -35l616 0 0 616 -616 0 0 -616z"/>
     <path id="14" class="fil9" d="M5992 5873l593 0 0 593 -593 0 0 -593zm-34 -34l661 0 0 661 -661 0 0 -661z"/>
     <path id="15" class="fil9" d="M5969 5850l638 0 0 638 -638 0 0 -638zm-34 -34l707 0 0 707 -707 0 0 -707z"/>
     <path id="16" class="fil10" d="M5946 5827l684 0 0 684 -684 0 0 -684zm-34 -34l752 0 0 752 -752 0 0 -752z"/>
     <path id="17" class="fil11" d="M5924 5805l729 0 0 729 -729 0 0 -729zm-35 -35l798 0 0 798 -798 0 0 -798z"/>
     <path id="18" class="fil11" d="M5901 5782l775 0 0 775 -775 0 0 -775zm-34 -34l843 0 0 843 -843 0 0 -843z"/>
     <path id="19" class="fil12" d="M5878 5759l821 0 0 821 -821 0 0 -821zm-34 -34l889 0 0 889 -889 0 0 -889z"/>
     <path id="20" class="fil12" d="M5855 5736l866 0 0 866 -866 0 0 -866zm-34 -34l935 0 0 935 -935 0 0 -935z"/>
     <path id="21" class="fil13" d="M5832 5713l912 0 0 912 -912 0 0 -912zm-34 -34l980 0 0 980 -980 0 0 -980z"/>
     <path id="22" class="fil14" d="M5810 5691l957 0 0 957 -957 0 0 -957zm-35 -35l1026 0 0 1026 -1026 0 0 -1026z"/>
     <path id="23" class="fil14" d="M5787 5668l1003 0 0 1003 -1003 0 0 -1003zm-34 -34l1071 0 0 1071 -1071 0 0 -1071z"/>
     <path id="24" class="fil15" d="M5764 5645l1049 0 0 1049 -1049 0 0 -1049zm-34 -34l1117 0 0 1117 -1117 0 0 -1117z"/>
     <path id="25" class="fil15" d="M5741 5622l1094 0 0 1094 -1094 0 0 -1094zm-34 -34l1163 0 0 1163 -1163 0 0 -1163z"/>
     <path id="26" class="fil16" d="M5718 5599l1140 0 0 1140 -1140 0 0 -1140zm-34 -34l1208 0 0 1208 -1208 0 0 -1208z"/>
     <path id="27" class="fil17" d="M5696 5577l1185 0 0 1185 -1185 0 0 -1185zm-35 -35l1254 0 0 1254 -1254 0 0 -1254z"/>
     <path id="28" class="fil17" d="M5673 5554l1231 0 0 1231 -1231 0 0 -1231zm-34 -34l1299 0 0 1299 -1299 0 0 -1299z"/>
     <path id="29" class="fil18" d="M5650 5531l1277 0 0 1277 -1277 0 0 -1277zm-34 -34l1345 0 0 1345 -1345 0 0 -1345z"/>
     <path id="30" class="fil18" d="M5627 5508l1322 0 0 1322 -1322 0 0 -1322zm-34 -34l1390 0 0 1391 -1390 0 0 -1391z"/>
     <path id="31" class="fil19" d="M5604 5485l1368 0 0 1368 -1368 0 0 -1368zm-34 -34l1436 0 0 1436 -1436 0 0 -1436z"/>
     <path id="32" class="fil20" d="M5582 5463l1413 0 0 1413 -1413 0 0 -1413zm-35 -35l1482 0 0 1482 -1482 0 0 -1482z"/>
     <path id="33" class="fil20" d="M5559 5440l1459 0 0 1459 -1459 0 0 -1459zm-34 -34l1527 0 0 1527 -1527 0 0 -1527z"/>
     <path id="34" class="fil21" d="M5536 5417l1504 0 0 1504 -1504 0 0 -1504zm-34 -34l1573 0 0 1573 -1573 0 0 -1573z"/>
     <path id="35" class="fil21" d="M5513 5394l1550 0 0 1550 -1550 0 0 -1550zm-34 -34l1618 0 0 1618 -1618 0 0 -1618z"/>
     <path id="36" class="fil22" d="M5490 5371l1596 0 0 1596 -1596 0 0 -1596zm-34 -34l1664 0 0 1664 -1664 0 0 -1664z"/>
     <path id="37" class="fil23" d="M5468 5349l1641 0 0 1641 -1641 0 0 -1641zm-35 -35l1710 0 0 1710 -1710 0 0 -1710z"/>
     <path id="38" class="fil23" d="M5445 5326l1687 0 0 1687 -1687 0 0 -1687zm-34 -34l1755 0 0 1755 -1755 0 0 -1755z"/>
     <path id="39" class="fil24" d="M5422 5303l1732 0 0 1732 -1732 0 0 -1732zm-34 -34l1801 0 0 1801 -1801 0 0 -1801z"/>
     <path id="40" class="fil24" d="M5399 5280l1778 0 0 1778 -1778 0 0 -1778zm-34 -34l1846 0 0 1846 -1846 0 0 -1846z"/>
     <path id="41" class="fil25" d="M5376 5257l1824 0 0 1824 -1824 0 0 -1824zm-34 -34l1892 0 0 1892 -1892 0 0 -1892z"/>
     <path id="42" class="fil26" d="M5354 5235l1869 0 0 1869 -1869 0 0 -1869zm-35 -35l1938 0 0 1938 -1938 0 0 -1938z"/>
     <path id="43" class="fil26" d="M5331 5212l1915 0 0 1915 -1915 0 0 -1915zm-34 -34l1983 0 0 1983 -1983 0 0 -1983z"/>
     <path id="44" class="fil27" d="M5308 5189l1960 0 0 1960 -1960 0 0 -1960zm-34 -34l2029 0 0 2029 -2029 0 0 -2029z"/>
     <path id="45" class="fil27" d="M5285 5166l2006 0 0 2006 -2006 0 0 -2006zm-34 -34l2074 0 0 2074 -2074 0 0 -2074z"/>
     <path id="46" class="fil28" d="M5262 5143l2052 0 0 2052 -2052 0 0 -2052zm-34 -34l2120 0 0 2120 -2120 0 0 -2120z"/>
     <path id="47" class="fil29" d="M5240 5121l2097 0 0 2097 -2097 0 0 -2097zm-35 -35l2166 0 0 2166 -2166 0 0 -2166z"/>
     <path id="48" class="fil29" d="M5217 5098l2143 0 0 2143 -2143 0 0 -2143zm-34 -34l2211 0 0 2211 -2211 0 0 -2211z"/>
     <path id="49" class="fil30" d="M5194 5075l2188 0 0 2188 -2188 0 0 -2188zm-34 -34l2257 0 0 2257 -2257 0 0 -2257z"/>
     <path id="50" class="fil31" d="M5171 5052l2234 0 0 2234 -2234 0 0 -2234zm-34 -34l2302 0 0 2302 -2302 0 0 -2302z"/>
     <path id="51" class="fil32" d="M5148 5029l2280 0 0 2280 -2280 0 0 -2280zm-34 -34l2348 0 0 2348 -2348 0 0 -2348z"/>
     <path id="52" class="fil33" d="M5126 5007l2325 0 0 2325 -2325 0 0 -2325zm-35 -35l2394 0 0 2394 -2394 0 0 -2394z"/>
     <path id="53" class="fil33" d="M5103 4984l2371 0 0 2371 -2371 0 0 -2371zm-34 -34l2439 0 0 2439 -2439 0 0 -2439z"/>
     <path id="54" class="fil34" d="M5080 4961l2416 0 0 2416 -2416 0 0 -2416zm-34 -34l2485 0 0 2485 -2485 0 0 -2485z"/>
     <path id="55" class="fil35" d="M5057 4938l2462 0 0 2462 -2462 0 0 -2462zm-34 -34l2530 0 0 2530 -2530 0 0 -2530z"/>
     <path id="56" class="fil36" d="M5034 4915l2508 0 0 2508 -2508 0 0 -2508zm-34 -34l2576 0 0 2576 -2576 0 0 -2576z"/>
     <path id="57" class="fil37" d="M5012 4893l2553 0 0 2553 -2553 0 0 -2553zm-35 -35l2622 0 0 2622 -2622 0 0 -2622z"/>
     <path id="58" class="fil37" d="M4989 4870l2599 0 0 2599 -2599 0 0 -2599zm-34 -34l2667 0 0 2667 -2667 0 0 -2667z"/>
     <path id="59" class="fil38" d="M4966 4847l2644 0 0 2644 -2644 0 0 -2644zm-34 -34l2713 0 0 2713 -2713 0 0 -2713z"/>
     <path id="60" class="fil39" d="M4943 4824l2690 0 0 2690 -2690 0 0 -2690zm-34 -34l2758 0 0 2758 -2758 0 0 -2758z"/>
     <path id="61" class="fil40" d="M4920 4802l2736 0 0 2735 -2736 0 0 -2735zm-34 -35l2804 0 0 2804 -2804 0 0 -2804z"/>
     <path id="62" class="fil41" d="M4898 4779l2781 0 0 2781 -2781 0 0 -2781zm-34 -34l2849 0 0 2849 -2849 0 0 -2849z"/>
     <path id="63" class="fil41" d="M4875 4756l2827 0 0 2827 -2827 0 0 -2827zm-34 -34l2895 0 0 2895 -2895 0 0 -2895z"/>
     <path id="64" class="fil42" d="M4852 4733l2872 0 0 2872 -2872 0 0 -2872zm-34 -34l2941 0 0 2941 -2941 0 0 -2941z"/>
     <path id="65" class="fil43" d="M4829 4710l2918 0 0 2918 -2918 0 0 -2918zm-34 -34l2986 0 0 2986 -2986 0 0 -2986z"/>
     <path id="66" class="fil44" d="M4807 4688l2963 0 0 2963 -2963 0 0 -2963zm-35 -35l3032 0 0 3032 -3032 0 0 -3032z"/>
     <path id="67" class="fil45" d="M4784 4665l3009 0 0 3009 -3009 0 0 -3009zm-34 -34l3077 0 0 3077 -3077 0 0 -3077z"/>
     <path id="68" class="fil45" d="M4761 4642l3055 0 0 3055 -3055 0 0 -3055zm-34 -34l3123 0 0 3123 -3123 0 0 -3123z"/>
     <path id="69" class="fil46" d="M4738 4619l3100 0 0 3100 -3100 0 0 -3100zm-34 -34l3169 0 0 3169 -3169 0 0 -3169z"/>
     <path id="70" class="fil47" d="M4715 4596l3146 0 0 3146 -3146 0 0 -3146zm-34 -34l3214 0 0 3214 -3214 0 0 -3214z"/>
     <path id="71" class="fil48" d="M4693 4574l3191 0 0 3191 -3191 0 0 -3191zm-35 -35l3260 0 0 3260 -3260 0 0 -3260z"/>
     <path id="72" class="fil49" d="M4670 4551l3237 0 0 3237 -3237 0 0 -3237zm-34 -34l3305 0 0 3305 -3305 0 0 -3305z"/>
     <path id="73" class="fil49" d="M4647 4528l3283 0 0 3283 -3283 0 0 -3283zm-34 -34l3351 0 0 3351 -3351 0 0 -3351z"/>
     <path id="74" class="fil50" d="M4624 4505l3328 0 0 3328 -3328 0 0 -3328zm-34 -34l3397 0 0 3397 -3397 0 0 -3397z"/>
     <path id="75" class="fil51" d="M4601 4482l3374 0 0 3374 -3374 0 0 -3374zm-34 -34l3442 0 0 3442 -3442 0 0 -3442z"/>
     <path id="76" class="fil52" d="M4579 4460l3419 0 0 3419 -3419 0 0 -3419zm-35 -35l3488 0 0 3488 -3488 0 0 -3488z"/>
     <path id="77" class="fil53" d="M4556 4437l3465 0 0 3465 -3465 0 0 -3465zm-34 -34l3533 0 0 3533 -3533 0 0 -3533z"/>
     <path id="78" class="fil53" d="M4533 4414l3510 0 0 3511 -3510 0 0 -3511zm-34 -34l3579 0 0 3579 -3579 0 0 -3579z"/>
     <path id="79" class="fil54" d="M4510 4391l3556 0 0 3556 -3556 0 0 -3556zm-34 -34l3624 0 0 3624 -3624 0 0 -3624z"/>
     <path id="80" class="fil55" d="M4487 4368l3602 0 0 3602 -3602 0 0 -3602zm-34 -34l3670 0 0 3670 -3670 0 0 -3670z"/>
     <path id="81" class="fil56" d="M4465 4346l3647 0 0 3647 -3647 0 0 -3647zm-35 -35l3716 0 0 3716 -3716 0 0 -3716z"/>
     <path id="82" class="fil57" d="M4442 4323l3693 0 0 3693 -3693 0 0 -3693zm-34 -34l3761 0 0 3761 -3761 0 0 -3761z"/>
     <path id="83" class="fil57" d="M4419 4300l3738 0 0 3738 -3738 0 0 -3738zm-34 -34l3807 0 0 3807 -3807 0 0 -3807z"/>
     <path id="84" class="fil58" d="M4396 4277l3784 0 0 3784 -3784 0 0 -3784zm-34 -34l3852 0 0 3852 -3852 0 0 -3852z"/>
     <path id="85" class="fil59" d="M4373 4254l3830 0 0 3830 -3830 0 0 -3830zm-34 -34l3898 0 0 3898 -3898 0 0 -3898z"/>
     <path id="86" class="fil60" d="M4351 4232l3875 0 0 3875 -3875 0 0 -3875zm-35 -35l3944 0 0 3944 -3944 0 0 -3944z"/>
     <path id="87" class="fil61" d="M4328 4209l3921 0 0 3921 -3921 0 0 -3921zm-34 -34l3989 0 0 3989 -3989 0 0 -3989z"/>
     <path id="88" class="fil61" d="M4305 4186l3966 0 0 3966 -3966 0 0 -3966zm-34 -34l4035 0 0 4035 -4035 0 0 -4035z"/>
     <path id="89" class="fil62" d="M4282 4163l4012 0 0 4012 -4012 0 0 -4012zm-34 -34l4080 0 0 4080 -4080 0 0 -4080z"/>
     <path id="90" class="fil63" d="M4259 4140l4058 0 0 4058 -4058 0 0 -4058zm-34 -34l4126 0 0 4126 -4126 0 0 -4126z"/>
     <path id="91" class="fil64" d="M4237 4118l4103 0 0 4103 -4103 0 0 -4103zm-35 -35l4172 0 0 4172 -4172 0 0 -4172z"/>
     <path id="92" class="fil65" d="M4214 4095l4149 0 0 4149 -4149 0 0 -4149zm-34 -34l4217 0 0 4217 -4217 0 0 -4217z"/>
     <path id="93" class="fil65" d="M4191 4072l4194 0 0 4194 -4194 0 0 -4194zm-34 -34l4263 0 0 4263 -4263 0 0 -4263z"/>
     <path id="94" class="fil66" d="M4168 4049l4240 0 0 4240 -4240 0 0 -4240zm-34 -34l4308 0 0 4308 -4308 0 0 -4308z"/>
     <path id="95" class="fil67" d="M4145 4026l4286 0 0 4286 -4286 0 0 -4286zm-34 -34l4354 0 0 4354 -4354 0 0 -4354z"/>
     <path id="96" class="fil68" d="M4123 4004l4331 0 0 4331 -4331 0 0 -4331zm-35 -35l4400 0 0 4400 -4400 0 0 -4400z"/>
     <path id="97" class="fil69" d="M4100 3981l4377 0 0 4377 -4377 0 0 -4377zm-34 -34l4445 0 0 4445 -4445 0 0 -4445z"/>
     <path id="98" class="fil69" d="M4077 3958l4422 0 0 4422 -4422 0 0 -4422zm-34 -34l4491 0 0 4491 -4491 0 0 -4491z"/>
     <path id="99" class="fil70" d="M4054 3935l4468 0 0 4468 -4468 0 0 -4468zm-34 -34l4536 0 0 4536 -4536 0 0 -4536z"/>
     <path id="100" class="fil71" d="M4031 3912l4514 0 0 4514 -4514 0 0 -4514zm-34 -34l4582 0 0 4582 -4582 0 0 -4582z"/>
     <path id="101" class="fil72" d="M4009 3890l4559 0 0 4559 -4559 0 0 -4559zm-35 -35l4628 0 0 4628 -4628 0 0 -4628z"/>
     <path id="102" class="fil73" d="M3986 3867l4605 0 0 4605 -4605 0 0 -4605zm-34 -34l4673 0 0 4673 -4673 0 0 -4673z"/>
     <path id="103" class="fil73" d="M3963 3844l4650 0 0 4650 -4650 0 0 -4650zm-34 -34l4719 0 0 4719 -4719 0 0 -4719z"/>
     <path id="104" class="fil74" d="M3940 3821l4696 0 0 4696 -4696 0 0 -4696zm-34 -34l4764 0 0 4764 -4764 0 0 -4764z"/>
     <path id="105" class="fil75" d="M3917 3798l4742 0 0 4742 -4742 0 0 -4742zm-34 -34l4810 0 0 4810 -4810 0 0 -4810z"/>
     <path id="106" class="fil76" d="M3895 3776l4787 0 0 4787 -4787 0 0 -4787zm-35 -34l4856 0 0 4855 -4856 0 0 -4855z"/>
     <path id="107" class="fil77" d="M3872 3753l4833 0 0 4833 -4833 0 0 -4833zm-34 -34l4901 0 0 4901 -4901 0 0 -4901z"/>
     <path id="108" class="fil77" d="M3849 3730l4878 0 0 4878 -4878 0 0 -4878zm-34 -34l4947 0 0 4947 -4947 0 0 -4947z"/>
     <path id="109" class="fil78" d="M3826 3707l4924 0 0 4924 -4924 0 0 -4924zm-34 -34l4992 0 0 4992 -4992 0 0 -4992z"/>
     <path id="110" class="fil79" d="M3804 3685l4969 0 0 4969 -4969 0 0 -4969zm-35 -35l5038 0 0 5038 -5038 0 0 -5038z"/>
     <path id="111" class="fil80" d="M3781 3662l5015 0 0 5015 -5015 0 0 -5015zm-34 -34l5083 0 0 5083 -5083 0 0 -5083z"/>
     <path id="112" class="fil81" d="M3758 3639l5061 0 0 5061 -5061 0 0 -5061zm-34 -34l5129 0 0 5129 -5129 0 0 -5129z"/>
     <path id="113" class="fil81" d="M3735 3616l5106 0 0 5106 -5106 0 0 -5106zm-34 -34l5175 0 0 5175 -5175 0 0 -5175z"/>
     <path id="114" class="fil82" d="M3712 3593l5152 0 0 5152 -5152 0 0 -5152zm-34 -34l5220 0 0 5220 -5220 0 0 -5220z"/>
     <path id="115" class="fil83" d="M3690 3571l5197 0 0 5197 -5197 0 0 -5197zm-35 -35l5266 0 0 5266 -5266 0 0 -5266z"/>
     <path id="116" class="fil84" d="M3667 3548l5243 0 0 5243 -5243 0 0 -5243zm-34 -34l5311 0 0 5311 -5311 0 0 -5311z"/>
     <path id="117" class="fil85" d="M3644 3525l5289 0 0 5289 -5289 0 0 -5289zm-34 -34l5357 0 0 5357 -5357 0 0 -5357z"/>
     <path id="118" class="fil85" d="M3621 3502l5334 0 0 5334 -5334 0 0 -5334zm-34 -34l5403 0 0 5403 -5403 0 0 -5403z"/>
     <path id="119" class="fil86" d="M3598 3479l5380 0 0 5380 -5380 0 0 -5380zm-34 -34l5448 0 0 5448 -5448 0 0 -5448z"/>
     <path id="120" class="fil87" d="M3576 3457l5425 0 0 5425 -5425 0 0 -5425zm-35 -35l5494 0 0 5494 -5494 0 0 -5494z"/>
     <path id="121" class="fil88" d="M3553 3434l5471 0 0 5471 -5471 0 0 -5471zm-34 -34l5539 0 0 5539 -5539 0 0 -5539z"/>
     <path id="122" class="fil89" d="M3530 3411l5516 0 0 5517 -5516 0 0 -5517zm-34 -34l5585 0 0 5585 -5585 0 0 -5585z"/>
     <path id="123" class="fil89" d="M3507 3388l5562 0 0 5562 -5562 0 0 -5562zm-34 -34l5630 0 0 5630 -5630 0 0 -5630z"/>
     <path id="124" class="fil90" d="M3484 3365l5608 0 0 5608 -5608 0 0 -5608zm-34 -34l5676 0 0 5676 -5676 0 0 -5676z"/>
     <path id="125" class="fil91" d="M3462 3343l5653 0 0 5653 -5653 0 0 -5653zm-35 -35l5722 0 0 5722 -5722 0 0 -5722z"/>
     <path id="126" class="fil92" d="M3439 3320l5699 0 0 5699 -5699 0 0 -5699zm-34 -34l5767 0 0 5767 -5767 0 0 -5767z"/>
     <path id="127" class="fil93" d="M3416 3297l5744 0 0 5744 -5744 0 0 -5744zm-34 -34l5813 0 0 5813 -5813 0 0 -5813z"/>
     <path id="128" class="fil93" d="M3393 3274l5790 0 0 5790 -5790 0 0 -5790zm-34 -34l5858 0 0 5858 -5858 0 0 -5858z"/>
     <path id="129" class="fil94" d="M3370 3251l5836 0 0 5836 -5836 0 0 -5836zm-34 -34l5904 0 0 5904 -5904 0 0 -5904z"/>
     <path id="130" class="fil95" d="M3348 3229l5881 0 0 5881 -5881 0 0 -5881zm-35 -35l5950 0 0 5950 -5950 0 0 -5950z"/>
     <path id="131" class="fil96" d="M3325 3206l5927 0 0 5927 -5927 0 0 -5927zm-34 -34l5995 0 0 5995 -5995 0 0 -5995z"/>
     <path id="132" class="fil97" d="M3302 3183l5972 0 0 5972 -5972 0 0 -5972zm-34 -34l6041 0 0 6041 -6041 0 0 -6041z"/>
     <path id="133" class="fil97" d="M3279 3160l6018 0 0 6018 -6018 0 0 -6018zm-34 -34l6086 0 0 6086 -6086 0 0 -6086z"/>
     <path id="134" class="fil98" d="M3256 3137l6064 0 0 6064 -6064 0 0 -6064zm-34 -34l6132 0 0 6132 -6132 0 0 -6132z"/>
     <path id="135" class="fil99" d="M3234 3115l6109 0 0 6109 -6109 0 0 -6109zm-35 -35l6178 0 0 6178 -6178 0 0 -6178z"/>
     <path id="136" class="fil100" d="M3211 3092l6155 0 0 6155 -6155 0 0 -6155zm-34 -34l6223 0 0 6223 -6223 0 0 -6223z"/>
     <path id="137" class="fil101" d="M3188 3069l6200 0 0 6200 -6200 0 0 -6200zm-34 -34l6269 0 0 6269 -6269 0 0 -6269z"/>
     <path id="138" class="fil101" d="M3165 3046l6246 0 0 6246 -6246 0 0 -6246zm-34 -34l6314 0 0 6314 -6314 0 0 -6314z"/>
     <path id="139" class="fil102" d="M3142 3023l6292 0 0 6292 -6292 0 0 -6292zm-34 -34l6360 0 0 6360 -6360 0 0 -6360z"/>
     <path id="140" class="fil103" d="M3120 3001l6337 0 0 6337 -6337 0 0 -6337zm-35 -35l6406 0 0 6406 -6406 0 0 -6406z"/>
     <path id="141" class="fil104" d="M3097 2978l6383 0 0 6383 -6383 0 0 -6383zm-34 -34l6451 0 0 6451 -6451 0 0 -6451z"/>
     <path id="142" class="fil105" d="M3074 2955l6428 0 0 6428 -6428 0 0 -6428zm-34 -34l6497 0 0 6497 -6497 0 0 -6497z"/>
     <path id="143" class="fil106" d="M3051 2932l6474 0 0 6474 -6474 0 0 -6474zm-34 -34l6542 0 0 6542 -6542 0 0 -6542z"/>
     <path id="144" class="fil107" d="M3028 2909l6520 0 0 6520 -6520 0 0 -6520zm-34 -34l6588 0 0 6588 -6588 0 0 -6588z"/>
     <path id="145" class="fil108" d="M3006 2887l6565 0 0 6565 -6565 0 0 -6565zm-35 -35l6634 0 0 6634 -6634 0 0 -6634z"/>
     <path id="146" class="fil109" d="M2983 2864l6611 0 0 6611 -6611 0 0 -6611zm-34 -34l6679 0 0 6679 -6679 0 0 -6679z"/>
     <path id="147" class="fil110" d="M2960 2841l6656 0 0 6656 -6656 0 0 -6656zm-34 -34l6725 0 0 6725 -6725 0 0 -6725z"/>
     <path id="148" class="fil111" d="M2937 2818l6702 0 0 6702 -6702 0 0 -6702zm-34 -34l6770 0 0 6770 -6770 0 0 -6770z"/>
     <path id="149" class="fil112" d="M2914 2795l6748 0 0 6748 -6748 0 0 -6748zm-34 -34l6816 0 0 6816 -6816 0 0 -6816z"/>
     <path id="150" class="fil113" d="M2892 2773l6793 0 0 6793 -6793 0 0 -6793zm-35 -34l6862 0 0 6861 -6862 0 0 -6861z"/>
     <path id="151" class="fil114" d="M2869 2750l6839 0 0 6839 -6839 0 0 -6839zm-34 -34l6907 0 0 6907 -6907 0 0 -6907z"/>
     <path id="152" class="fil115" d="M2846 2727l6884 0 0 6884 -6884 0 0 -6884zm-34 -34l6953 0 0 6953 -6953 0 0 -6953z"/>
     <path id="153" class="fil116" d="M2823 2704l6930 0 0 6930 -6930 0 0 -6930zm-34 -34l6998 0 0 6998 -6998 0 0 -6998z"/>
     <path id="154" class="fil117" d="M2801 2682l6975 0 0 6975 -6975 0 0 -6975zm-35 -35l7044 0 0 7044 -7044 0 0 -7044z"/>
     <path id="155" class="fil118" d="M2778 2659l7021 0 0 7021 -7021 0 0 -7021zm-34 -34l7089 0 0 7089 -7089 0 0 -7089z"/>
     <path id="156" class="fil119" d="M2755 2636l7067 0 0 7067 -7067 0 0 -7067zm-34 -34l7135 0 0 7135 -7135 0 0 -7135z"/>
     <path id="157" class="fil120" d="M2732 2613l7112 0 0 7112 -7112 0 0 -7112zm-34 -34l7181 0 0 7181 -7181 0 0 -7181z"/>
     <path id="158" class="fil121" d="M2709 2590l7158 0 0 7158 -7158 0 0 -7158zm-34 -34l7226 0 0 7226 -7226 0 0 -7226z"/>
     <path id="159" class="fil122" d="M2687 2568l7203 0 0 7203 -7203 0 0 -7203zm-35 -35l7272 0 0 7272 -7272 0 0 -7272z"/>
     <path id="160" class="fil123" d="M2664 2545l7249 0 0 7249 -7249 0 0 -7249zm-34 -34l7317 0 0 7317 -7317 0 0 -7317z"/>
     <path id="161" class="fil124" d="M2641 2522l7295 0 0 7295 -7295 0 0 -7295zm-34 -34l7363 0 0 7363 -7363 0 0 -7363z"/>
     <path id="162" class="fil125" d="M2618 2499l7340 0 0 7340 -7340 0 0 -7340zm-34 -34l7409 0 0 7409 -7409 0 0 -7409z"/>
     <path id="163" class="fil126" d="M2595 2476l7386 0 0 7386 -7386 0 0 -7386zm-34 -34l7454 0 0 7454 -7454 0 0 -7454z"/>
     <path id="164" class="fil127" d="M2573 2454l7431 0 0 7431 -7431 0 0 -7431zm-35 -35l7500 0 0 7500 -7500 0 0 -7500z"/>
     <path id="165" class="fil128" d="M2550 2431l7477 0 0 7477 -7477 0 0 -7477zm-34 -34l7545 0 0 7545 -7545 0 0 -7545z"/>
     <path id="166" class="fil129" d="M2527 2408l7523 0 0 7523 -7523 0 0 -7523zm-34 -34l7591 0 0 7591 -7591 0 0 -7591z"/>
     <path id="167" class="fil130" d="M2504 2385l7568 0 0 7568 -7568 0 0 -7568zm-34 -34l7636 0 0 7637 -7636 0 0 -7637z"/>
     <path id="168" class="fil131" d="M2481 2362l7614 0 0 7614 -7614 0 0 -7614zm-34 -34l7682 0 0 7682 -7682 0 0 -7682z"/>
     <path id="169" class="fil132" d="M2459 2340l7659 0 0 7659 -7659 0 0 -7659zm-35 -35l7728 0 0 7728 -7728 0 0 -7728z"/>
     <path id="170" class="fil133" d="M2436 2317l7705 0 0 7705 -7705 0 0 -7705zm-34 -34l7773 0 0 7773 -7773 0 0 -7773z"/>
     <path id="171" class="fil134" d="M2413 2294l7750 0 0 7750 -7750 0 0 -7750zm-34 -34l7819 0 0 7819 -7819 0 0 -7819z"/>
     <path id="172" class="fil135" d="M2390 2271l7796 0 0 7796 -7796 0 0 -7796zm-34 -34l7864 0 0 7864 -7864 0 0 -7864z"/>
     <path id="173" class="fil136" d="M2367 2248l7842 0 0 7842 -7842 0 0 -7842zm-34 -34l7910 0 0 7910 -7910 0 0 -7910z"/>
     <path id="174" class="fil137" d="M2345 2226l7887 0 0 7887 -7887 0 0 -7887zm-35 -35l7956 0 0 7956 -7956 0 0 -7956z"/>
     <path id="175" class="fil138" d="M2322 2203l7933 0 0 7933 -7933 0 0 -7933zm-34 -34l8001 0 0 8001 -8001 0 0 -8001z"/>
     <path id="176" class="fil139" d="M2299 2180l7978 0 0 7978 -7978 0 0 -7978zm-34 -34l8047 0 0 8047 -8047 0 0 -8047z"/>
     <path id="177" class="fil140" d="M2276 2157l8024 0 0 8024 -8024 0 0 -8024zm-34 -34l8092 0 0 8092 -8092 0 0 -8092z"/>
     <path id="178" class="fil141" d="M2253 2134l8070 0 0 8070 -8070 0 0 -8070zm-34 -34l8138 0 0 8138 -8138 0 0 -8138z"/>
     <path id="179" class="fil142" d="M2231 2112l8115 0 0 8115 -8115 0 0 -8115zm-35 -35l8184 0 0 8184 -8184 0 0 -8184z"/>
     <path id="180" class="fil143" d="M2208 2089l8161 0 0 8161 -8161 0 0 -8161zm-34 -34l8229 0 0 8229 -8229 0 0 -8229z"/>
     <path id="181" class="fil144" d="M2185 2066l8206 0 0 8206 -8206 0 0 -8206zm-34 -34l8275 0 0 8275 -8275 0 0 -8275z"/>
     <path id="182" class="fil145" d="M2162 2043l8252 0 0 8252 -8252 0 0 -8252zm-34 -34l8320 0 0 8320 -8320 0 0 -8320z"/>
     <path id="183" class="fil146" d="M2139 2020l8298 0 0 8298 -8298 0 0 -8298zm-34 -34l8366 0 0 8366 -8366 0 0 -8366z"/>
     <path id="184" class="fil147" d="M2117 1998l8343 0 0 8343 -8343 0 0 -8343zm-35 -35l8412 0 0 8412 -8412 0 0 -8412z"/>
     <path id="185" class="fil148" d="M2094 1975l8389 0 0 8389 -8389 0 0 -8389zm-34 -34l8457 0 0 8457 -8457 0 0 -8457z"/>
     <path id="186" class="fil149" d="M2071 1952l8434 0 0 8434 -8434 0 0 -8434zm-34 -34l8503 0 0 8503 -8503 0 0 -8503z"/>
     <path id="187" class="fil150" d="M2048 1929l8480 0 0 8480 -8480 0 0 -8480zm-34 -34l8548 0 0 8548 -8548 0 0 -8548z"/>
     <path id="188" class="fil151" d="M2025 1906l8526 0 0 8526 -8526 0 0 -8526zm-34 -34l8594 0 0 8594 -8594 0 0 -8594z"/>
     <path id="189" class="fil152" d="M2003 1884l8571 0 0 8571 -8571 0 0 -8571zm-35 -35l8640 0 0 8640 -8640 0 0 -8640z"/>
     <path id="190" class="fil153" d="M1980 1861l8617 0 0 8617 -8617 0 0 -8617zm-34 -34l8685 0 0 8685 -8685 0 0 -8685z"/>
     <path id="191" class="fil154" d="M1957 1838l8662 0 0 8662 -8662 0 0 -8662zm-34 -34l8731 0 0 8731 -8731 0 0 -8731z"/>
     <path id="192" class="fil155" d="M1934 1815l8708 0 0 8708 -8708 0 0 -8708zm-34 -34l8776 0 0 8776 -8776 0 0 -8776z"/>
     <path id="193" class="fil156" d="M1911 1792l8754 0 0 8754 -8754 0 0 -8754zm-34 -34l8822 0 0 8822 -8822 0 0 -8822z"/>
     <path id="194" class="fil157" d="M1889 1770l8799 0 0 8799 -8799 0 0 -8799zm-35 -35l8868 0 0 8868 -8868 0 0 -8868z"/>
     <path id="195" class="fil158" d="M1866 1747l8845 0 0 8845 -8845 0 0 -8845zm-34 -34l8913 0 0 8913 -8913 0 0 -8913z"/>
     <path id="196" class="fil159" d="M1843 1724l8890 0 0 8890 -8890 0 0 -8890zm-34 -34l8959 0 0 8959 -8959 0 0 -8959z"/>
     <path id="197" class="fil160" d="M1820 1701l8936 0 0 8936 -8936 0 0 -8936zm-34 -34l9004 0 0 9004 -9004 0 0 -9004z"/>
     <path id="198" class="fil161" d="M1797 1679l8982 0 0 8981 -8982 0 0 -8981zm-34 -35l9050 0 0 9050 -9050 0 0 -9050z"/>
     <path id="199" class="fil162" d="M1775 1656l9027 0 0 9027 -9027 0 0 -9027zm-34 -34l9095 0 0 9095 -9095 0 0 -9095z"/>
     <path id="200" class="fil163" d="M1752 1633l9073 0 0 9073 -9073 0 0 -9073zm-34 -34l9141 0 0 9141 -9141 0 0 -9141z"/>
     <path id="201" class="fil164" d="M1729 1610l9118 0 0 9118 -9118 0 0 -9118zm-34 -34l9187 0 0 9187 -9187 0 0 -9187z"/>
     <path id="202" class="fil165" d="M1706 1587l9164 0 0 9164 -9164 0 0 -9164zm-34 -34l9232 0 0 9232 -9232 0 0 -9232z"/>
     <path id="203" class="fil166" d="M1684 1565l9209 0 0 9209 -9209 0 0 -9209zm-35 -35l9278 0 0 9278 -9278 0 0 -9278z"/>
     <path id="204" class="fil167" d="M1661 1542l9255 0 0 9255 -9255 0 0 -9255zm-34 -34l9323 0 0 9323 -9323 0 0 -9323z"/>
     <path id="205" class="fil168" d="M1638 1519l9301 0 0 9301 -9301 0 0 -9301zm-34 -34l9369 0 0 9369 -9369 0 0 -9369z"/>
     <path id="206" class="fil169" d="M1615 1496l9346 0 0 9346 -9346 0 0 -9346zm-34 -34l9415 0 0 9415 -9415 0 0 -9415z"/>
     <path id="207" class="fil170" d="M1592 1473l9392 0 0 9392 -9392 0 0 -9392zm-34 -34l9460 0 0 9460 -9460 0 0 -9460z"/>
     <path id="208" class="fil171" d="M1570 1451l9437 0 0 9437 -9437 0 0 -9437zm-35 -35l9506 0 0 9506 -9506 0 0 -9506z"/>
     <path id="209" class="fil172" d="M1547 1428l9483 0 0 9483 -9483 0 0 -9483zm-34 -34l9551 0 0 9551 -9551 0 0 -9551z"/>
     <path id="210" class="fil173" d="M1524 1405l9529 0 0 9529 -9529 0 0 -9529zm-34 -34l9597 0 0 9597 -9597 0 0 -9597z"/>
     <path id="211" class="fil174" d="M1501 1382l9574 0 0 9574 -9574 0 0 -9574zm-34 -34l9643 0 0 9643 -9643 0 0 -9643z"/>
     <path id="212" class="fil175" d="M1478 1359l9620 0 0 9620 -9620 0 0 -9620zm-34 -34l9688 0 0 9688 -9688 0 0 -9688z"/>
     <path id="213" class="fil176" d="M1456 1337l9665 0 0 9665 -9665 0 0 -9665zm-35 -35l9734 0 0 9734 -9734 0 0 -9734z"/>
     <path id="214" class="fil177" d="M1433 1314l9711 0 0 9711 -9711 0 0 -9711zm-34 -34l9779 0 0 9779 -9779 0 0 -9779z"/>
     <path id="215" class="fil178" d="M1410 1291l9756 0 0 9756 -9756 0 0 -9756zm-34 -34l9825 0 0 9825 -9825 0 0 -9825z"/>
     <path id="216" class="fil179" d="M1387 1268l9802 0 0 9802 -9802 0 0 -9802zm-34 -34l9870 0 0 9870 -9870 0 0 -9870z"/>
     <path id="217" class="fil180" d="M1364 1245l9848 0 0 9848 -9848 0 0 -9848zm-34 -34l9916 0 0 9916 -9916 0 0 -9916z"/>
     <path id="218" class="fil181" d="M1342 1223l9893 0 0 9893 -9893 0 0 -9893zm-35 -35l9962 0 0 9962 -9962 0 0 -9962z"/>
     <path id="219" class="fil182" d="M1319 1200l9939 0 0 9939 -9939 0 0 -9939zm-34 -34l10007 0 0 10007 -10007 0 0 -10007z"/>
     <path id="220" class="fil183" d="M1296 1177l9984 0 0 9984 -9984 0 0 -9984zm-34 -34l10053 0 0 10053 -10053 0 0 -10053z"/>
     <path id="221" class="fil184" d="M1273 1154l10030 0 0 10030 -10030 0 0 -10030zm-34 -34l10098 0 0 10098 -10098 0 0 -10098z"/>
     <path id="222" class="fil185" d="M1250 1131l10076 0 0 10076 -10076 0 0 -10076zm-34 -34l10144 0 0 10144 -10144 0 0 -10144z"/>
     <path id="223" class="fil186" d="M1228 1109l10121 0 0 10121 -10121 0 0 -10121zm-35 -35l10190 0 0 10190 -10190 0 0 -10190z"/>
     <path id="224" class="fil187" d="M1205 1086l10167 0 0 10167 -10167 0 0 -10167zm-34 -34l10235 0 0 10235 -10235 0 0 -10235z"/>
     <path id="225" class="fil188" d="M1182 1063l10212 0 0 10212 -10212 0 0 -10212zm-34 -34l10281 0 0 10281 -10281 0 0 -10281z"/>
     <path id="226" class="fil189" d="M1159 1040l10258 0 0 10258 -10258 0 0 -10258zm-34 -34l10326 0 0 10326 -10326 0 0 -10326z"/>
     <path id="227" class="fil190" d="M1136 1017l10304 0 0 10304 -10304 0 0 -10304zm-34 -34l10372 0 0 10372 -10372 0 0 -10372z"/>
     <path id="228" class="fil191" d="M1114 995l10349 0 0 10349 -10349 0 0 -10349zm-35 -35l10418 0 0 10418 -10418 0 0 -10418z"/>
     <path id="229" class="fil192" d="M1091 972l10395 0 0 10395 -10395 0 0 -10395zm-34 -34l10463 0 0 10463 -10463 0 0 -10463z"/>
     <path id="230" class="fil193" d="M1068 949l10440 0 0 10440 -10440 0 0 -10440zm-34 -34l10509 0 0 10509 -10509 0 0 -10509z"/>
     <path id="231" class="fil194" d="M1045 926l10486 0 0 10486 -10486 0 0 -10486zm-34 -34l10554 0 0 10554 -10554 0 0 -10554z"/>
     <path id="232" class="fil195" d="M1022 903l10532 0 0 10532 -10532 0 0 -10532zm-34 -34l10600 0 0 10600 -10600 0 0 -10600z"/>
     <path id="233" class="fil196" d="M1000 881l10577 0 0 10577 -10577 0 0 -10577zm-35 -35l10646 0 0 10646 -10646 0 0 -10646z"/>
     <path id="234" class="fil197" d="M977 858l10623 0 0 10623 -10623 0 0 -10623zm-34 -34l10691 0 0 10691 -10691 0 0 -10691z"/>
     <path id="235" class="fil198" d="M954 835l10668 0 0 10668 -10668 0 0 -10668zm-34 -34l10737 0 0 10737 -10737 0 0 -10737z"/>
     <path id="236" class="fil199" d="M931 812l10714 0 0 10714 -10714 0 0 -10714zm-34 -34l10782 0 0 10782 -10782 0 0 -10782z"/>
     <path id="237" class="fil200" d="M908 789l10760 0 0 10760 -10760 0 0 -10760zm-34 -34l10828 0 0 10828 -10828 0 0 -10828z"/>
     <path id="238" class="fil201" d="M886 767l10805 0 0 10805 -10805 0 0 -10805zm-35 -35l10874 0 0 10874 -10874 0 0 -10874z"/>
     <path id="239" class="fil202" d="M863 744l10851 0 0 10851 -10851 0 0 -10851zm-34 -34l10919 0 0 10919 -10919 0 0 -10919z"/>
     <path id="240" class="fil203" d="M840 721l10896 0 0 10896 -10896 0 0 -10896zm-34 -34l10965 0 0 10965 -10965 0 0 -10965z"/>
     <path id="241" class="fil204" d="M817 698l10942 0 0 10942 -10942 0 0 -10942zm-34 -34l11010 0 0 11010 -11010 0 0 -11010z"/>
     <path id="242" class="fil205" d="M794 675l10988 0 0 10988 -10988 0 0 -10988zm-34 -34l11056 0 0 11056 -11056 0 0 -11056z"/>
     <path id="243" class="fil206" d="M772 653l11033 0 0 11033 -11033 0 0 -11033zm-35 -34l11102 0 0 11101 -11102 0 0 -11101z"/>
     <path id="244" class="fil207" d="M749 630l11079 0 0 11079 -11079 0 0 -11079zm-34 -34l11147 0 0 11147 -11147 0 0 -11147z"/>
     <path id="245" class="fil208" d="M726 607l11124 0 0 11124 -11124 0 0 -11124zm-34 -34l11193 0 0 11193 -11193 0 0 -11193z"/>
     <path id="246" class="fil209" d="M703 584l11170 0 0 11170 -11170 0 0 -11170zm-34 -34l11238 0 0 11238 -11238 0 0 -11238z"/>
     <path id="247" class="fil210" d="M681 562l11215 0 0 11215 -11215 0 0 -11215zm-35 -35l11284 0 0 11284 -11284 0 0 -11284z"/>
     <path id="248" class="fil211" d="M658 539l11261 0 0 11261 -11261 0 0 -11261zm-34 -34l11329 0 0 11329 -11329 0 0 -11329z"/>
     <path id="249" class="fil212" d="M635 516l11307 0 0 11307 -11307 0 0 -11307zm-34 -34l11375 0 0 11375 -11375 0 0 -11375z"/>
     <path id="250" class="fil213" d="M612 493l11352 0 0 11352 -11352 0 0 -11352zm-34 -34l11421 0 0 11421 -11421 0 0 -11421z"/>
     <path id="251" class="fil214" d="M589 470l11398 0 0 11398 -11398 0 0 -11398zm-34 -34l11466 0 0 11466 -11466 0 0 -11466z"/>
     <path id="252" class="fil215" d="M567 448l11443 0 0 11443 -11443 0 0 -11443zm-35 -35l11512 0 0 11512 -11512 0 0 -11512z"/>
     <path id="253" class="fil216" d="M544 425l11489 0 0 11489 -11489 0 0 -11489zm-34 -34l11557 0 0 11557 -11557 0 0 -11557z"/>
     <path id="254" class="fil217" d="M521 402l11535 0 0 11535 -11535 0 0 -11535zm-34 -34l11603 0 0 11603 -11603 0 0 -11603z"/>
     <path id="255" class="fil218" d="M498 379l11580 0 0 11580 -11580 0 0 -11580zm-34 -34l11649 0 0 11649 -11649 0 0 -11649z"/>
     <path id="256" class="fil0" d="M475 356l11626 0 0 11626 -11626 0 0 -11626zm-22 -22l11671 0 0 11671 -11671 0 0 -11671z"/>
    </g>
    <path id="257" class="fil219 str0" d="M6288 334c3223,0 5836,2612 5836,5835 0,3223 -2613,5836 -5836,5836 -3223,0 -5835,-2613 -5835,-5836 0,-3223 2612,-5835 5835,-5835z"/>
   </g>
   <path class="fil220 str1" d="M6287 516c3121,0 5652,2530 5652,5651 0,3121 -2531,5651 -5652,5651 -3121,0 -5651,-2530 -5651,-5651 0,-3121 2530,-5651 5651,-5651zm1 13l5 5584 877 -5514 -869 5516 1730 -5310 -1721 5312 2539 -4973 -2531 4977 3285 -4515 -3278 4520 3951 -3945 -3945 3952 4520 -3279 -4515 3286 4977 -2531 -4973 2539 5312 -1722 -5309 1730 5516 -869 -5515 878 5584 4 -5584 5 5515 878 -5516 -870 5309 1730 -5312 -1721 4973 2539 -4977 -2531 4515 3285 -4520 -3278 3945 3951 -3951 -3945 3958 3951 -3965 -3946 3965 3946 -3973 -3942 3973 3942 -3982 -3939 3982 3939 -3990 -3938 -3997 3936 3988 -3936 -3984 3932 3975 -3933 -3979 3937 3971 -3940 -3967 3936 3959 -3940 -4026 3887 4019 -3892 -3952 3945 3945 -3951 -4520 3278 4515 -3285 -4977 2531 4973 -2539 -5312 1721 5310 -1730 -5516 870 5514 -878 -5584 -5 5584 -4 -5514 -878 5516 869 -5310 -1730 5312 1722 -4973 -2539 4977 2531 -4515 -3286 4520 3279 -3945 -3952 3952 3945 -3279 -4520 3286 4515 -2531 -4977 2539 4973 -1722 -5312 1730 5310 -869 -5516 878 5514 4 -5584z"/>
   <polygon class="fil219 str2" points="6288,524 6308,6121 10280,2177 6336,6149 11934,6169 6336,6189 10280,10161 6308,6217 6288,11815 6268,6217 2296,10161 6240,6189 643,6169 6240,6149 2296,2177 6268,6121 "/>
   <path class="fil220" d="M6287 1277c2701,0 4891,2190 4891,4890 0,2701 -2190,4890 -4891,4890 -2700,0 -4890,-2189 -4890,-4890 0,-2700 2190,-4890 4890,-4890z"/>
   <g>
    <path class="fil221" d="M5823 2173l121 -15c4,31 15,55 31,72 17,16 38,24 61,24 26,0 48,-10 65,-29 18,-20 27,-46 27,-80 0,-31 -9,-56 -26,-75 -16,-18 -37,-27 -61,-27 -16,0 -35,3 -57,9l13 -101c34,0 60,-7 78,-23 17,-15 26,-36 26,-62 0,-22 -6,-39 -19,-53 -13,-13 -31,-19 -53,-19 -21,0 -39,7 -54,22 -15,15 -25,37 -28,65l-115 -19c8,-40 20,-72 37,-96 16,-23 38,-42 67,-56 29,-13 62,-20 97,-20 62,0 111,19 148,59 31,32 46,68 46,109 0,57 -31,103 -94,138 37,8 67,26 90,54 22,28 33,61 33,101 0,57 -21,106 -63,146 -41,41 -93,61 -156,61 -59,0 -107,-17 -146,-51 -39,-34 -62,-79 -68,-134zm723 -483c63,0 112,22 148,68 43,53 64,142 64,266 0,124 -22,213 -64,267 -36,45 -85,67 -148,67 -64,0 -115,-24 -154,-73 -39,-49 -58,-137 -58,-262 0,-123 21,-212 64,-266 35,-45 85,-67 148,-67zm0 104c-15,0 -28,5 -40,14 -12,10 -21,27 -27,52 -9,33 -13,87 -13,164 0,77 4,130 11,158 8,29 18,48 29,58 12,9 25,14 40,14 15,0 28,-5 40,-14 11,-10 20,-27 27,-52 8,-32 13,-87 13,-164 0,-77 -4,-129 -12,-158 -7,-29 -17,-48 -29,-58 -11,-9 -24,-14 -39,-14z"/>
    <path class="fil221" d="M8940 3502l0 -131 -266 0 0 -109 282 -415 106 0 0 414 81 0 0 110 -81 0 0 131 -122 0zm0 -241l0 -222 -149 222 149 0zm474 -415c63,0 113,22 148,68 43,53 64,142 64,266 0,124 -21,213 -64,267 -35,45 -85,67 -148,67 -63,0 -115,-24 -153,-73 -39,-49 -59,-137 -59,-262 0,-123 22,-212 64,-266 36,-45 85,-67 148,-67zm0 104c-15,0 -28,5 -40,14 -11,10 -20,27 -27,52 -8,33 -13,87 -13,164 0,77 4,130 12,158 7,29 17,48 28,58 12,9 25,14 40,14 15,0 28,-5 40,-15 12,-9 21,-26 27,-51 9,-33 13,-87 13,-164 0,-77 -4,-129 -11,-158 -8,-29 -18,-48 -29,-58 -12,-9 -25,-14 -40,-14z"/>
    <path class="fil221" d="M3400 3392l0 116 -438 0c4,-44 19,-86 42,-125 24,-39 71,-92 141,-157 56,-52 91,-88 104,-107 17,-26 25,-51 25,-76 0,-28 -7,-50 -22,-65 -15,-15 -36,-22 -62,-22 -26,0 -47,8 -62,23 -16,16 -24,42 -27,79l-125 -13c8,-69 31,-118 70,-148 39,-30 88,-45 147,-45 65,0 115,17 152,52 37,35 55,78 55,130 0,29 -5,57 -16,84 -10,27 -27,54 -50,84 -15,19 -42,47 -82,83 -39,37 -64,61 -75,73 -11,11 -19,23 -26,34l249 0zm296 -540c63,0 113,22 149,68 42,53 63,142 63,266 0,124 -21,213 -64,267 -35,45 -85,67 -148,67 -63,0 -114,-24 -153,-73 -39,-49 -59,-137 -59,-262 0,-123 22,-212 64,-266 36,-45 85,-67 148,-67zm0 104c-15,0 -28,5 -40,14 -11,10 -20,27 -27,52 -8,33 -13,87 -13,164 0,77 4,130 12,158 7,29 17,48 29,58 11,9 24,14 39,14 15,0 28,-5 40,-15 12,-9 21,-26 27,-52 9,-32 13,-86 13,-163 0,-77 -4,-129 -11,-158 -8,-29 -18,-48 -29,-58 -12,-9 -25,-14 -40,-14z"/>
    <path class="fil221" d="M1928 6493l-124 0 0 -472c-46,42 -100,74 -162,95l0 -114c33,-11 68,-31 106,-61 39,-30 65,-65 79,-104l101 0 0 656zm399 -656c64,0 113,22 149,68 42,53 63,142 63,266 0,124 -21,213 -64,267 -35,45 -84,67 -148,67 -63,0 -114,-24 -153,-73 -39,-49 -59,-137 -59,-262 0,-123 22,-212 65,-266 35,-45 84,-67 147,-67zm0 104c-14,0 -28,5 -39,14 -12,10 -21,27 -28,52 -8,33 -12,87 -12,164 0,77 3,130 11,158 8,29 17,48 29,58 11,9 25,14 39,14 15,0 29,-5 40,-15 12,-9 21,-26 27,-51 9,-33 13,-87 13,-164 0,-77 -4,-129 -11,-158 -8,-29 -17,-48 -29,-58 -11,-9 -25,-14 -40,-14z"/>
    <path class="fil221" d="M9959 6326l125 -13c4,29 14,51 32,68 18,16 38,24 61,24 26,0 48,-10 66,-32 18,-21 27,-53 27,-96 0,-41 -9,-71 -27,-91 -18,-20 -41,-30 -70,-30 -36,0 -68,15 -97,47l-101 -15 64 -339 331 0 0 117 -236 0 -20 111c28,-14 56,-21 85,-21 56,0 103,20 142,61 39,40 58,93 58,158 0,54 -16,102 -47,144 -43,58 -101,87 -177,87 -60,0 -109,-17 -147,-49 -38,-32 -61,-76 -69,-131zm718 -489c63,0 112,23 148,68 42,54 64,143 64,267 0,124 -22,213 -65,267 -35,44 -84,67 -147,67 -64,0 -115,-25 -154,-74 -39,-49 -58,-136 -58,-261 0,-124 21,-212 64,-267 35,-44 84,-67 148,-67zm0 104c-15,0 -29,5 -40,15 -12,10 -21,27 -27,52 -9,32 -13,87 -13,164 0,77 4,129 11,158 8,29 17,48 29,58 11,9 25,14 40,14 14,0 28,-5 40,-15 11,-9 20,-27 27,-52 8,-32 12,-86 12,-163 0,-77 -3,-130 -11,-158 -8,-29 -17,-48 -29,-58 -11,-10 -25,-15 -39,-15z"/>
    <path class="fil221" d="M9114 9023l-121 14c-3,-25 -11,-43 -23,-55 -13,-12 -29,-18 -49,-18 -26,0 -49,12 -67,35 -18,24 -30,74 -34,149 31,-37 69,-56 116,-56 52,0 97,20 134,60 37,40 56,92 56,155 0,66 -20,120 -59,161 -39,40 -90,60 -151,60 -66,0 -120,-25 -162,-77 -43,-51 -64,-135 -64,-252 0,-120 22,-207 66,-260 45,-53 102,-79 173,-79 49,0 90,14 123,42 32,28 53,68 62,121zm-284 274c0,40 10,72 28,94 19,22 40,33 65,33 23,0 42,-9 57,-27 16,-18 24,-48 24,-89 0,-43 -9,-74 -25,-94 -17,-20 -38,-29 -63,-29 -24,0 -44,9 -61,28 -16,19 -25,47 -25,84zm579 -437c63,0 113,23 148,68 43,53 64,142 64,266 0,124 -21,213 -64,267 -36,45 -85,67 -148,67 -64,0 -115,-24 -154,-73 -39,-49 -58,-136 -58,-262 0,-123 21,-212 64,-266 36,-45 85,-67 148,-67zm0 104c-15,0 -28,5 -40,15 -12,9 -21,26 -27,51 -9,33 -13,88 -13,164 0,77 4,130 12,159 7,28 17,47 28,57 12,10 25,14 40,14 15,0 28,-5 40,-14 11,-10 21,-27 27,-52 9,-32 13,-87 13,-164 0,-76 -4,-129 -12,-158 -7,-29 -17,-48 -28,-57 -12,-10 -25,-15 -40,-15z"/>
    <path class="fil221" d="M3190 8856c63,0 113,23 149,68 42,53 63,142 63,266 0,124 -21,213 -64,267 -35,45 -85,67 -148,67 -63,0 -114,-24 -153,-73 -39,-49 -59,-136 -59,-262 0,-123 22,-212 64,-266 36,-45 85,-67 148,-67zm0 104c-15,0 -28,5 -40,14 -11,10 -20,27 -27,52 -8,33 -12,87 -12,164 0,77 3,130 11,159 7,28 17,47 29,57 11,10 24,14 39,14 15,0 29,-5 40,-14 12,-10 21,-27 27,-52 9,-32 13,-87 13,-164 0,-77 -4,-129 -11,-158 -8,-29 -18,-48 -29,-58 -12,-9 -25,-14 -40,-14z"/>
   </g>
   <path class="fil222 str3" d="M4808 9960l2975 0c36,0 65,29 65,65l0 977c0,36 -29,65 -65,65l-2975 0c-36,0 -65,-29 -65,-65l0 -977c0,-36 29,-65 65,-65z"/>
   <path class="fil220" d="M6192 11076l207 0c82,0 149,67 149,149l0 435c0,82 -67,149 -149,149l-207 0c-82,0 -149,-67 -149,-149l0 -435c0,-82 67,-149 149,-149z"/>
   <path class="fil220" d="M6192 11076l207 0c82,0 149,67 149,149l0 435c0,82 -67,149 -149,149l-207 0c-82,0 -149,-67 -149,-149l0 -435c0,-82 67,-149 149,-149z"/>
   <path class="fil220" d="M6192 11076l207 0c82,0 149,67 149,149l0 435c0,82 -67,149 -149,149l-207 0c-82,0 -149,-67 -149,-149l0 -435c0,-82 67,-149 149,-149z"/>
   <g>
    <polygon class="fil221" points="7327,10495 7327,10102 7402,10102 7402,10311 7490,10210 7583,10210 7486,10314 7590,10495 7509,10495 7437,10367 7402,10404 7402,10495 "/>
    <path class="fil221" d="M7533 10651l0 60 -52 0 0 115c0,24 1,37 2,41 1,4 3,7 7,10 3,2 7,4 12,4 7,0 18,-3 31,-8l6 59c-17,8 -37,11 -59,11 -14,0 -26,-2 -37,-7 -11,-4 -19,-10 -24,-17 -5,-8 -8,-17 -11,-30 -1,-9 -2,-26 -2,-53l0 -125 -35 0 0 -60 35 0 0 -57 75 -44 0 101 52 0z"/>
    <path class="fil221" d="M7533 10651l0 60 -52 0 0 115c0,24 1,37 2,41 1,4 3,7 7,10 3,2 7,4 12,4 7,0 18,-3 31,-8l6 59c-17,8 -37,11 -59,11 -14,0 -26,-2 -37,-7 -11,-4 -19,-10 -24,-17 -5,-8 -8,-17 -11,-30 -1,-9 -2,-26 -2,-53l0 -125 -35 0 0 -60 35 0 0 -57 75 -44 0 101 52 0z"/>
    <path class="fil221" d="M7533 10651l0 60 -52 0 0 115c0,24 1,37 2,41 1,4 3,7 7,10 3,2 7,4 12,4 7,0 18,-3 31,-8l6 59c-17,8 -37,11 -59,11 -14,0 -26,-2 -37,-7 -11,-4 -19,-10 -24,-17 -5,-8 -8,-17 -11,-30 -1,-9 -2,-26 -2,-53l0 -125 -35 0 0 -60 35 0 0 -57 75 -44 0 101 52 0z"/>
   </g>
   <path class="fil220" d="M6192 11070l207 0c82,0 149,68 149,150l0 439c0,83 -67,150 -149,150l-207 0c-82,0 -149,-67 -149,-150l0 -439c0,-82 67,-150 149,-150z"/>
  </g>
 </g>
</svg>
